<svg xmlns="http://www.w3.org/2000/svg" xmlns:xlink="http://www.w3.org/1999/xlink" width="200" zoomAndPan="magnify" viewBox="0 0 150 60" height="80" preserveAspectRatio="xMidYMid meet" version="1.0"><defs><g/><clipPath id="f185bf076b"><path d="M 6.394531 13.683594 L 31 13.683594 L 31 46.683594 L 6.394531 46.683594 Z M 6.394531 13.683594 " clip-rule="nonzero"/></clipPath></defs><g clip-path="url(#f185bf076b)"><path fill="#ffffff" d="M 26.804688 28.746094 C 26.902344 29.132812 27.226562 29.179688 27.4375 29.351562 C 29.246094 30.808594 30.390625 32.652344 30.628906 35.019531 C 31.152344 40.195312 28.371094 44.253906 23.402344 45.582031 C 22.265625 45.886719 21.101562 46.03125 19.9375 46.164062 C 17.277344 46.460938 14.617188 46.667969 11.9375 46.425781 C 10.867188 46.328125 9.789062 46.257812 8.710938 46.214844 C 7.808594 46.175781 7.351562 45.683594 7.195312 44.828125 C 7.125 44.453125 7.046875 44.078125 7.015625 43.699219 C 6.699219 39.804688 6.46875 35.902344 6.433594 31.992188 C 6.398438 28.179688 6.460938 24.367188 6.726562 20.558594 C 6.828125 19.136719 6.960938 17.714844 7.152344 16.296875 C 7.273438 15.425781 7.726562 15.050781 8.476562 14.886719 C 9.164062 14.734375 9.84375 14.546875 10.539062 14.4375 C 14.503906 13.8125 18.46875 13.695312 22.421875 14.570312 C 23.152344 14.730469 23.886719 14.921875 24.578125 15.203125 C 26.832031 16.113281 28.484375 17.707031 29.210938 20.070312 C 30.070312 22.855469 29.484375 25.4375 27.707031 27.730469 C 27.425781 28.097656 27.09375 28.425781 26.804688 28.746094 Z M 11.128906 15.855469 C 11.046875 16.003906 10.964844 16.15625 10.882812 16.308594 C 10.722656 16.351562 10.652344 16.464844 10.640625 16.625 C 10.398438 16.648438 10.398438 16.8125 10.441406 16.996094 C 10.199219 16.972656 10.164062 17.128906 10.167969 17.324219 C 9.957031 17.226562 9.757812 17.234375 9.550781 17.363281 C 9.40625 17.453125 9.230469 17.484375 9.078125 17.550781 C 9.089844 17.757812 8.976562 17.855469 8.796875 17.90625 C 8.757812 18.054688 8.714844 18.203125 8.675781 18.351562 C 8.554688 18.421875 8.433594 18.492188 8.308594 18.558594 C 8.304688 18.648438 8.273438 18.65625 8.214844 18.585938 C 8.214844 18.585938 8.253906 18.550781 8.277344 18.535156 C 8.433594 18.519531 8.589844 18.511719 8.636719 18.316406 C 8.816406 18.21875 8.804688 18.058594 8.78125 17.898438 C 9.097656 17.945312 9.101562 17.753906 9.0625 17.523438 C 9.511719 17.839844 9.792969 17.394531 10.140625 17.265625 C 10.226562 17.160156 10.316406 17.054688 10.398438 16.941406 C 10.464844 16.820312 10.535156 16.703125 10.605469 16.585938 C 10.757812 16.539062 10.882812 16.472656 10.847656 16.277344 C 11.0625 16.226562 11.074219 16.054688 11.074219 15.882812 C 11.105469 15.894531 11.136719 15.90625 11.167969 15.917969 C 11.148438 15.925781 11.109375 15.949219 11.105469 15.945312 C 10.980469 15.800781 11.078125 16.039062 11.128906 15.855469 Z M 12.578125 32.683594 C 12.523438 32.839844 12.472656 33 12.253906 32.90625 C 12.179688 33.046875 12.285156 33.261719 12.070312 33.339844 C 11.996094 33.566406 11.851562 33.585938 11.632812 33.398438 C 11.609375 33.570312 11.6875 33.761719 11.523438 33.902344 C 11.429688 34.207031 11.351562 34.210938 11.066406 33.945312 C 11.210938 34.066406 11.152344 33.785156 11.171875 33.976562 C 11.183594 34.078125 11.144531 34.109375 11.042969 34.085938 C 10.859375 34.042969 11.140625 34.152344 11.050781 33.988281 C 11.179688 33.773438 11.371094 33.847656 11.550781 33.878906 C 11.410156 33.707031 11.183594 33.527344 11.609375 33.433594 C 11.75 33.289062 11.933594 33.332031 12.101562 33.328125 C 11.972656 33.136719 12.085938 33.015625 12.230469 32.90625 C 12.339844 32.824219 12.453125 32.738281 12.5625 32.652344 C 12.585938 32.441406 12.691406 32.292969 12.890625 32.214844 C 12.988281 32.042969 13.117188 31.960938 13.304688 32.082031 C 13.332031 31.917969 13.359375 31.753906 13.386719 31.589844 C 13.5 31.109375 13.695312 31.4375 13.867188 31.542969 C 13.84375 31.363281 13.78125 31.175781 13.9375 31.019531 C 14.027344 30.703125 14.113281 30.691406 14.414062 30.96875 C 14.390625 30.785156 14.320312 30.59375 14.519531 30.457031 C 14.570312 30.367188 14.4375 30.199219 14.667969 30.179688 C 14.847656 30.164062 14.871094 30.304688 14.960938 30.382812 C 14.953125 30.203125 14.816406 29.996094 15.066406 29.875 C 15.082031 29.785156 15.074219 29.632812 15.113281 29.617188 C 15.308594 29.554688 15.453125 29.644531 15.535156 29.835938 C 15.5 29.644531 15.355469 29.433594 15.621094 29.292969 C 15.65625 29.195312 15.566406 29.050781 15.722656 28.996094 C 15.933594 28.925781 15.996094 29.085938 16.0625 29.230469 C 15.953125 29.0625 16.007812 29.105469 16.097656 29.199219 C 15.945312 29.3125 15.785156 29.386719 15.597656 29.304688 C 15.746094 29.480469 15.824219 29.652344 15.558594 29.792969 C 15.402344 29.921875 15.226562 29.957031 15.039062 29.890625 C 15.183594 30.058594 15.320312 30.226562 14.988281 30.34375 C 14.851562 30.507812 14.675781 30.511719 14.492188 30.480469 C 14.746094 30.769531 14.734375 30.851562 14.4375 30.929688 C 14.285156 31.101562 14.097656 31.089844 13.910156 31.042969 C 14.175781 31.332031 14.171875 31.402344 13.882812 31.503906 C 13.730469 31.675781 13.539062 31.625 13.355469 31.613281 C 13.492188 31.773438 13.722656 31.9375 13.316406 32.042969 C 13.242188 32.25 13.027344 32.160156 12.898438 32.253906 C 12.925781 32.5 12.835938 32.65625 12.578125 32.683594 Z M 16.777344 32.589844 L 16.6875 32.632812 C 16.6875 32.632812 16.738281 32.554688 16.742188 32.558594 C 16.953125 32.582031 17.050781 32.453125 17.121094 32.277344 C 17.140625 32.191406 17.175781 32.1875 17.222656 32.277344 C 17.222656 32.28125 17.179688 32.304688 17.160156 32.320312 C 17.03125 32.410156 16.90625 32.5 16.777344 32.589844 Z M 20.445312 32.601562 C 20.371094 32.648438 20.140625 32.648438 20.386719 32.796875 C 20.394531 32.722656 20.402344 32.648438 20.414062 32.574219 C 20.648438 32.542969 20.675781 32.363281 20.6875 32.175781 C 20.753906 32.09375 20.789062 32.105469 20.789062 32.210938 C 20.789062 32.210938 20.738281 32.214844 20.714844 32.226562 C 20.625 32.351562 20.535156 32.476562 20.445312 32.601562 Z M 23.597656 32.761719 C 23.515625 32.8125 23.464844 32.761719 23.53125 32.699219 C 23.660156 32.5625 23.421875 32.660156 23.597656 32.707031 C 23.6875 32.546875 23.773438 32.382812 23.863281 32.222656 C 23.90625 32.152344 23.9375 32.160156 23.953125 32.246094 C 23.929688 32.25 23.90625 32.253906 23.882812 32.261719 C 23.851562 32.464844 23.816406 32.667969 23.597656 32.761719 Z M 17.4375 16.96875 C 17.355469 17.09375 17.269531 17.222656 17.1875 17.347656 C 16.941406 17.3125 16.695312 17.273438 16.445312 17.242188 C 16.464844 17.460938 16.324219 17.589844 16.1875 17.71875 C 16.148438 17.886719 16.109375 18.050781 16.066406 18.214844 C 15.886719 18.171875 16.058594 18.410156 15.976562 18.242188 C 15.933594 18.152344 15.957031 18.117188 16.050781 18.117188 C 16.238281 18.117188 15.949219 18.070312 16.078125 18.210938 C 16.101562 18.039062 16.128906 17.867188 16.15625 17.699219 C 16.257812 17.542969 16.359375 17.386719 16.457031 17.230469 C 16.707031 17.269531 16.953125 17.304688 17.199219 17.339844 C 17.160156 17.148438 17.3125 17.050781 17.402344 16.921875 C 17.578125 16.789062 17.601562 16.609375 17.546875 16.40625 C 17.816406 16.554688 18.101562 16.449219 18.371094 16.445312 C 18.40625 16.28125 18.4375 16.117188 18.472656 15.953125 C 18.554688 15.957031 18.660156 15.996094 18.714844 15.960938 C 18.808594 15.902344 18.769531 15.796875 18.660156 15.804688 C 18.605469 15.808594 18.554688 15.921875 18.507812 15.984375 C 18.246094 16.101562 18.3125 16.285156 18.40625 16.476562 C 18.128906 16.449219 17.855469 16.3125 17.582031 16.460938 C 17.535156 16.628906 17.484375 16.800781 17.4375 16.96875 Z M 21.652344 33.054688 C 21.699219 33.140625 21.675781 33.199219 21.578125 33.203125 C 21.558594 33.203125 21.527344 33.160156 21.515625 33.132812 C 21.433594 32.960938 21.511719 33.242188 21.589844 33.078125 C 21.617188 33.089844 21.648438 33.101562 21.675781 33.113281 C 21.652344 33.121094 21.609375 33.136719 21.605469 33.132812 C 21.503906 32.972656 21.554688 33.214844 21.652344 33.054688 Z M 22.664062 33.023438 C 22.597656 33.191406 22.527344 33.355469 22.457031 33.523438 C 22.332031 33.582031 22.207031 33.636719 22.082031 33.695312 C 22.089844 33.792969 22.058594 33.808594 21.988281 33.734375 C 21.988281 33.734375 22.027344 33.695312 22.054688 33.675781 C 22.214844 33.691406 22.371094 33.699219 22.425781 33.492188 C 22.488281 33.34375 22.554688 33.195312 22.617188 33.054688 C 22.746094 33.078125 22.71875 33.160156 22.652344 33.113281 C 22.496094 33.015625 22.628906 33.210938 22.664062 33.023438 Z M 15.707031 17.183594 C 15.441406 17.226562 15.46875 17.398438 15.542969 17.589844 C 15.304688 17.5 15.105469 17.546875 14.898438 17.707031 C 14.6875 17.871094 14.519531 18.136719 14.191406 18.09375 C 14.183594 18.351562 14.042969 18.472656 13.800781 18.5 C 13.804688 18.691406 13.808594 18.878906 13.808594 19.070312 C 13.621094 19.167969 13.4375 19.117188 13.253906 19.058594 C 13.253906 19.253906 13.253906 19.445312 13.25 19.640625 C 13.09375 20.0625 12.917969 19.777344 12.746094 19.652344 C 12.722656 19.835938 12.699219 20.019531 12.671875 20.199219 C 12.617188 20.292969 12.726562 20.460938 12.5 20.476562 C 12.308594 20.484375 12.3125 20.332031 12.230469 20.25 C 12.164062 20.414062 12.351562 20.644531 12.101562 20.761719 C 11.925781 20.691406 12.058594 20.957031 12 20.777344 C 11.964844 20.671875 11.996094 20.632812 12.097656 20.644531 C 12.285156 20.664062 12.011719 20.601562 12.121094 20.75 C 12.003906 20.570312 12.128906 20.425781 12.195312 20.277344 C 12.359375 20.25 12.523438 20.21875 12.6875 20.191406 C 12.585938 20.011719 12.667969 19.84375 12.726562 19.679688 C 12.90625 19.664062 13.085938 19.648438 13.265625 19.632812 C 13.175781 19.449219 13.171875 19.261719 13.25 19.070312 C 13.441406 19.066406 13.632812 19.066406 13.820312 19.058594 C 13.769531 18.878906 13.628906 18.699219 13.804688 18.503906 C 13.9375 18.367188 14.070312 18.226562 14.203125 18.089844 C 14.425781 18.15625 14.632812 18.144531 14.832031 17.992188 C 15.046875 17.828125 15.28125 17.695312 15.496094 17.535156 C 15.554688 17.40625 15.613281 17.277344 15.671875 17.148438 C 15.921875 17.097656 15.972656 16.957031 15.859375 16.734375 C 16.523438 16.917969 16.816406 16.46875 17.085938 15.988281 C 17.242188 16.058594 17.347656 15.996094 17.410156 15.851562 C 17.417969 15.839844 17.351562 15.765625 17.316406 15.765625 C 17.15625 15.765625 17.054688 15.824219 17.113281 16.015625 C 16.558594 16.019531 16.316406 16.542969 15.902344 16.78125 C 15.835938 16.914062 15.773438 17.046875 15.707031 17.183594 Z M 22.503906 17.027344 C 22.402344 17.226562 22.304688 17.429688 22.207031 17.628906 C 22.085938 17.632812 22.074219 17.597656 22.171875 17.515625 C 22.191406 17.550781 22.210938 17.582031 22.226562 17.605469 C 22.230469 17.390625 22.113281 17.125 22.453125 17.070312 C 22.558594 17.054688 22.527344 17.132812 22.480469 17.101562 C 22.324219 17.003906 22.441406 17.207031 22.503906 17.027344 Z M 22.882812 34.808594 C 22.8125 34.96875 22.808594 34.957031 22.867188 34.804688 C 23.152344 34.816406 23.210938 34.65625 23.15625 34.410156 C 23.285156 34.445312 23.457031 34.546875 23.535156 34.496094 C 24.089844 34.140625 24.699219 33.835938 24.976562 33.164062 C 25.992188 32.886719 26.652344 32.089844 27.410156 31.433594 C 27.503906 31.355469 27.464844 31.261719 27.347656 31.21875 C 27.304688 31.203125 27.246094 31.179688 27.222656 31.199219 C 26.851562 31.46875 26.464844 31.71875 26.128906 32.03125 C 25.734375 32.398438 25.15625 32.582031 25 33.191406 C 24.582031 33.152344 24.398438 33.523438 24.113281 33.714844 C 23.785156 33.9375 23.601562 34.355469 23.175781 34.449219 C 23.15625 34.632812 23.046875 34.746094 22.882812 34.808594 Z M 28.933594 34.765625 C 28.824219 34.90625 28.714844 35.042969 28.601562 35.179688 C 28.410156 35.253906 28.332031 35.371094 28.464844 35.5625 C 27.792969 35.359375 27.503906 35.882812 27.160156 36.289062 C 27.144531 36.308594 27.167969 36.394531 27.195312 36.410156 C 27.265625 36.449219 27.390625 36.519531 27.417969 36.492188 C 27.761719 36.175781 28.089844 35.847656 28.417969 35.519531 C 28.542969 35.429688 28.644531 35.328125 28.570312 35.15625 C 28.777344 35.121094 28.824219 34.953125 28.871094 34.792969 C 28.902344 34.800781 28.929688 34.808594 28.960938 34.816406 C 28.9375 34.824219 28.902344 34.84375 28.898438 34.839844 C 28.789062 34.683594 28.847656 34.933594 28.933594 34.765625 Z M 13.453125 18.023438 C 13.25 18.003906 13.140625 18.085938 13.175781 18.308594 C 12.90625 18.253906 12.742188 18.445312 12.574219 18.601562 C 11.234375 19.855469 9.890625 21.109375 8.554688 22.375 C 8.390625 22.53125 8.238281 22.722656 8.132812 22.925781 C 8.085938 23.015625 8.171875 23.171875 8.203125 23.328125 C 8.355469 23.222656 8.480469 23.152344 8.578125 23.058594 C 9.980469 21.660156 11.382812 20.257812 12.78125 18.855469 C 12.941406 18.695312 13.144531 18.554688 13.152344 18.285156 C 13.347656 18.296875 13.457031 18.214844 13.433594 18 C 13.636719 18.015625 13.746094 17.933594 13.714844 17.710938 C 14.695312 17.210938 15.632812 16.363281 16.015625 15.523438 C 15.121094 16.304688 14.253906 16.824219 13.738281 17.734375 C 13.539062 17.722656 13.433594 17.808594 13.453125 18.023438 Z M 21.394531 18.003906 C 21.207031 18.015625 21.4375 18.207031 21.320312 18.054688 C 21.304688 18.03125 21.28125 17.988281 21.289062 17.972656 C 21.335938 17.890625 21.390625 17.898438 21.425781 17.992188 C 21.414062 17.996094 21.402344 18 21.394531 18.003906 Z M 9.867188 18.285156 C 9.796875 18.5 9.636719 18.578125 9.433594 18.59375 C 9.386719 18.753906 9.339844 18.914062 9.289062 19.078125 C 9.1875 19.238281 9.035156 19.167969 8.894531 19.15625 C 8.6875 19.289062 8.824219 19.480469 8.8125 19.644531 C 8.667969 19.691406 8.523438 19.738281 8.375 19.78125 C 8.375 19.78125 8.347656 19.742188 8.347656 19.742188 C 8.503906 19.710938 8.660156 19.675781 8.816406 19.640625 C 8.832031 19.472656 8.847656 19.304688 8.867188 19.140625 C 9.011719 19.117188 9.160156 19.09375 9.304688 19.066406 C 9.335938 18.902344 9.363281 18.738281 9.402344 18.578125 C 9.566406 18.460938 9.667969 18.246094 9.902344 18.265625 C 9.792969 18.273438 9.785156 18.253906 9.875 18.210938 C 9.875 18.238281 9.871094 18.261719 9.867188 18.285156 Z M 22.203125 18.199219 C 22.121094 18.398438 22.042969 18.59375 21.960938 18.792969 C 21.703125 18.753906 21.445312 18.714844 21.183594 18.679688 C 21.125 18.835938 21.066406 18.996094 21.007812 19.152344 C 20.742188 19.296875 20.886719 19.46875 20.976562 19.632812 C 20.8125 19.585938 20.644531 19.515625 20.476562 19.496094 C 20.351562 19.480469 20.167969 19.746094 20.25 19.78125 C 20.3125 19.808594 20.402344 19.808594 20.464844 19.78125 C 20.628906 19.71875 20.753906 19.539062 20.953125 19.625 C 20.960938 19.457031 20.964844 19.289062 20.972656 19.125 C 21.25 19.074219 21.160156 18.84375 21.1875 18.667969 C 21.449219 18.707031 21.710938 18.746094 21.972656 18.773438 C 22.042969 18.597656 22.109375 18.417969 22.171875 18.25 C 22.226562 18.183594 22.234375 18.191406 22.203125 18.269531 C 22.203125 18.246094 22.203125 18.222656 22.203125 18.199219 Z M 10.765625 36.628906 C 10.757812 36.75 10.875 36.875 10.734375 36.988281 C 10.546875 37.140625 10.417969 37.011719 10.28125 36.898438 C 10.1875 37.039062 10.34375 37.265625 10.132812 37.371094 C 10.011719 37.832031 9.832031 37.542969 9.664062 37.402344 C 9.632812 37.585938 9.601562 37.765625 9.566406 37.945312 C 9.414062 38.355469 9.246094 38.074219 9.078125 37.960938 C 9.054688 38.144531 9.027344 38.324219 9.003906 38.507812 C 8.851562 38.910156 8.675781 38.636719 8.507812 38.527344 C 8.648438 38.652344 8.589844 38.363281 8.601562 38.550781 C 8.605469 38.640625 8.574219 38.667969 8.484375 38.644531 C 8.300781 38.59375 8.582031 38.722656 8.492188 38.558594 C 8.671875 38.535156 8.847656 38.515625 9.023438 38.488281 C 8.910156 38.3125 8.769531 38.136719 9.058594 37.992188 C 9.234375 37.972656 9.410156 37.957031 9.582031 37.933594 C 9.484375 37.753906 9.550781 37.59375 9.640625 37.433594 C 9.8125 37.410156 9.984375 37.386719 10.152344 37.363281 C 10.050781 37.1875 10.210938 37.058594 10.246094 36.90625 C 10.421875 36.792969 10.597656 36.679688 10.773438 36.574219 C 10.605469 36.660156 10.878906 36.71875 10.707031 36.648438 C 10.679688 36.640625 10.644531 36.589844 10.644531 36.589844 C 10.710938 36.519531 10.75 36.53125 10.765625 36.628906 Z M 15.160156 18.453125 C 15.0625 18.632812 14.96875 18.8125 14.871094 18.992188 C 14.707031 19.023438 14.542969 19.054688 14.378906 19.082031 C 14.375 19.265625 14.375 19.445312 14.371094 19.628906 C 14.246094 19.945312 14.152344 19.945312 13.875 19.632812 C 14.011719 19.746094 13.992188 19.75 13.855469 19.671875 C 14.03125 19.65625 14.210938 19.636719 14.390625 19.617188 C 14.265625 19.449219 14.261719 19.273438 14.378906 19.097656 C 14.542969 19.046875 14.703125 19 14.859375 18.945312 C 14.839844 18.734375 14.730469 18.476562 15.09375 18.476562 C 15.125 18.492188 15.15625 18.503906 15.1875 18.515625 C 15.164062 18.523438 15.117188 18.542969 15.113281 18.539062 C 15.011719 18.378906 15.066406 18.621094 15.160156 18.453125 Z M 10.359375 18.882812 C 10.132812 18.902344 10.058594 19.019531 10.140625 19.238281 C 9.875 19.1875 9.808594 19.316406 9.867188 19.554688 C 9.617188 19.527344 9.59375 19.695312 9.597656 19.886719 C 9.476562 19.964844 9.359375 20.042969 9.242188 20.121094 C 9.210938 20.269531 9.207031 20.441406 9.007812 20.480469 C 8.953125 20.574219 9.070312 20.75 8.835938 20.765625 C 8.636719 20.777344 8.648438 20.613281 8.570312 20.527344 L 8.597656 20.621094 C 8.597656 20.621094 8.535156 20.554688 8.535156 20.558594 C 8.703125 20.53125 8.867188 20.507812 9.03125 20.480469 C 8.960938 20.277344 9.121094 20.195312 9.222656 20.078125 C 9.339844 19.996094 9.457031 19.917969 9.5625 19.828125 C 9.652344 19.71875 9.738281 19.613281 9.824219 19.5 C 9.917969 19.402344 10.011719 19.300781 10.101562 19.199219 C 10.246094 19.132812 10.367188 19.050781 10.332031 18.855469 C 10.535156 18.867188 10.652344 18.796875 10.617188 18.566406 C 10.707031 18.566406 10.820312 18.597656 10.878906 18.550781 C 11.984375 17.714844 13.042969 16.824219 14.054688 15.855469 C 13.710938 15.574219 13.488281 15.730469 13.273438 15.929688 C 12.695312 16.472656 12.109375 17.003906 11.542969 17.5625 C 11.21875 17.878906 10.785156 18.109375 10.644531 18.59375 C 10.453125 18.59375 10.347656 18.679688 10.359375 18.882812 Z M 20.308594 18.867188 C 20.289062 18.988281 20.230469 19.011719 20.148438 18.925781 C 20.125 18.902344 20.113281 18.832031 20.132812 18.808594 C 20.199219 18.730469 20.273438 18.738281 20.332031 18.828125 C 20.222656 18.878906 20.207031 18.863281 20.277344 18.777344 C 20.289062 18.808594 20.296875 18.835938 20.308594 18.867188 Z M 24.304688 38.167969 C 24.265625 38.339844 24.226562 38.511719 24.1875 38.683594 C 23.976562 38.609375 23.878906 38.699219 23.867188 38.914062 C 23.679688 38.90625 23.59375 39.023438 23.558594 39.191406 C 23.390625 39.238281 23.34375 39.382812 23.296875 39.527344 C 23.1875 39.613281 23.078125 39.703125 22.96875 39.789062 C 22.960938 39.871094 22.929688 39.878906 22.878906 39.804688 C 22.875 39.804688 22.914062 39.777344 22.933594 39.761719 C 23.042969 39.667969 23.152344 39.578125 23.261719 39.488281 C 23.40625 39.421875 23.53125 39.347656 23.523438 39.160156 C 23.710938 39.164062 23.835938 39.097656 23.839844 38.882812 C 24.023438 38.917969 24.121094 38.828125 24.15625 38.652344 C 24.347656 38.539062 24.289062 38.363281 24.269531 38.203125 C 24.378906 38.203125 24.371094 38.273438 24.3125 38.25 C 24.144531 38.175781 24.316406 38.359375 24.304688 38.167969 Z M 18.695312 31.757812 C 18.691406 31.433594 18.859375 31.355469 19.136719 31.445312 L 19.175781 31.378906 C 19.175781 31.378906 19.175781 31.457031 19.167969 31.453125 C 19 31.574219 18.914062 31.816406 18.664062 31.789062 C 18.773438 31.753906 18.785156 31.832031 18.710938 31.828125 C 18.527344 31.816406 18.734375 31.941406 18.695312 31.757812 Z M 9.777344 38.609375 C 9.574219 38.574219 9.488281 38.679688 9.476562 38.875 C 9.292969 38.871094 9.199219 38.96875 9.1875 39.152344 C 8.886719 39.199219 8.734375 39.449219 8.546875 39.640625 C 8.257812 39.9375 8.1875 40.246094 8.363281 40.1875 C 8.527344 40.132812 8.683594 40.023438 8.804688 39.902344 C 8.992188 39.707031 9.230469 39.539062 9.261719 39.230469 C 9.441406 39.214844 9.535156 39.117188 9.53125 38.929688 C 9.722656 38.917969 9.8125 38.820312 9.792969 38.621094 C 9.992188 38.632812 10.082031 38.53125 10.066406 38.328125 C 10.152344 38.304688 10.265625 38.304688 10.324219 38.25 C 11.597656 36.992188 12.867188 35.730469 14.128906 34.460938 C 14.257812 34.328125 14.320312 34.136719 14.136719 33.949219 C 14.027344 34.015625 13.894531 34.070312 13.804688 34.164062 C 12.625 35.382812 11.453125 36.609375 10.28125 37.835938 C 10.148438 37.972656 10.03125 38.117188 10.066406 38.328125 C 9.851562 38.292969 9.761719 38.394531 9.777344 38.609375 Z M 13.847656 38.617188 C 13.839844 38.738281 13.972656 38.871094 13.816406 38.980469 C 13.621094 39.125 13.480469 38.996094 13.339844 38.875 C 13.34375 39.03125 13.496094 39.230469 13.222656 39.3125 C 13.179688 39.414062 13.335938 39.578125 13.089844 39.625 C 12.882812 39.664062 12.878906 39.496094 12.785156 39.417969 C 12.785156 39.589844 12.929688 39.804688 12.664062 39.910156 C 12.585938 40.234375 12.496094 40.246094 12.199219 39.976562 C 12.164062 40.152344 12.128906 40.332031 12.09375 40.511719 C 11.933594 40.75 11.757812 40.601562 11.582031 40.535156 C 11.574219 40.710938 11.566406 40.890625 11.558594 41.066406 C 11.375 41.0625 11.195312 41.054688 11.015625 41.050781 L 10.894531 41.492188 C 10.523438 41.625 10.296875 41.933594 10.0625 42.21875 C 9.539062 42.855469 8.777344 43.320312 8.550781 44.167969 C 8.480469 44.441406 9.058594 44.015625 10.335938 42.40625 C 10.558594 42.128906 10.925781 41.914062 10.863281 41.464844 C 11.132812 41.394531 11.015625 41.199219 11.007812 41.042969 C 11.191406 41.125 11.371094 41.136719 11.53125 41.003906 C 11.542969 40.855469 11.558594 40.707031 11.574219 40.558594 C 11.753906 40.539062 11.9375 40.519531 12.113281 40.496094 C 12.011719 40.316406 11.925781 40.144531 12.175781 40.011719 C 12.328125 39.871094 12.503906 39.847656 12.695312 39.898438 C 12.542969 39.726562 12.433594 39.558594 12.753906 39.453125 C 12.882812 39.269531 13.054688 39.222656 13.257812 39.296875 C 13.09375 39.140625 12.949219 38.988281 13.308594 38.902344 C 13.429688 38.679688 13.578125 38.503906 13.863281 38.570312 C 13.753906 38.636719 13.714844 38.550781 13.800781 38.53125 C 13.976562 38.496094 13.761719 38.449219 13.84375 38.617188 Z M 13.871094 39.808594 C 13.878906 40.171875 13.820312 40.21875 13.457031 40.140625 C 13.207031 40.179688 13.351562 40.414062 13.261719 40.535156 C 13.132812 40.582031 13.007812 40.628906 12.878906 40.671875 C 12.640625 40.679688 12.640625 40.832031 12.675781 41.007812 C 12.492188 40.933594 12.363281 40.996094 12.285156 41.175781 C 12.1875 41.269531 12.09375 41.363281 12 41.460938 C 11.886719 41.535156 11.777344 41.609375 11.664062 41.6875 C 11.363281 42.046875 11.058594 42.40625 10.765625 42.773438 C 10.640625 42.929688 10.605469 43.113281 10.71875 43.289062 C 10.480469 43.140625 10.378906 43.246094 10.359375 43.492188 C 9.980469 43.5 9.84375 43.839844 9.648438 44.070312 C 9.542969 44.199219 9.203125 44.363281 9.527344 44.570312 C 9.679688 44.671875 9.855469 44.453125 9.949219 44.304688 C 10.113281 44.042969 10.414062 43.84375 10.332031 43.464844 C 10.523438 43.527344 10.605469 43.386719 10.695312 43.265625 C 10.996094 42.902344 11.296875 42.546875 11.589844 42.179688 C 11.71875 42.019531 11.722656 41.835938 11.636719 41.660156 C 11.851562 41.738281 12 41.71875 11.96875 41.429688 C 12.183594 41.457031 12.28125 41.367188 12.253906 41.144531 C 12.429688 41.183594 12.546875 41.105469 12.632812 40.957031 C 12.703125 40.851562 12.777344 40.746094 12.855469 40.640625 C 12.996094 40.601562 13.132812 40.5625 13.273438 40.515625 C 13.21875 40.335938 13.347656 40.234375 13.441406 40.117188 C 13.589844 39.992188 13.734375 39.871094 13.878906 39.75 C 13.710938 39.839844 13.992188 39.890625 13.816406 39.828125 C 13.789062 39.816406 13.753906 39.773438 13.753906 39.773438 C 13.8125 39.699219 13.851562 39.710938 13.871094 39.808594 Z M 15.613281 31.472656 C 15.65625 31.191406 15.84375 31.152344 16.074219 31.183594 C 16.117188 31.03125 16.164062 30.875 16.207031 30.71875 C 16.34375 30.257812 16.519531 30.5625 16.6875 30.695312 C 16.714844 30.507812 16.550781 30.304688 16.746094 30.136719 C 16.792969 30.035156 16.675781 29.867188 16.910156 29.832031 C 17.125 29.804688 17.097656 29.984375 17.179688 30.066406 L 17.167969 29.972656 C 17.167969 29.972656 17.21875 30.046875 17.21875 30.042969 C 17.050781 30.078125 16.886719 30.109375 16.726562 30.144531 C 16.851562 30.320312 16.800781 30.492188 16.703125 30.65625 C 16.527344 30.679688 16.351562 30.703125 16.179688 30.734375 C 16.308594 30.90625 16.3125 31.0625 16.109375 31.1875 C 15.960938 31.347656 15.835938 31.546875 15.582031 31.492188 C 15.6875 31.480469 15.695312 31.5 15.609375 31.546875 C 15.609375 31.523438 15.613281 31.496094 15.613281 31.472656 Z M 26.757812 40.488281 L 26.683594 40.984375 C 26.527344 41.015625 26.367188 41.050781 26.210938 41.082031 C 26.1875 41.257812 26.167969 41.429688 26.144531 41.605469 C 25.980469 41.621094 25.839844 41.78125 25.65625 41.671875 C 25.808594 41.785156 25.742188 41.503906 25.765625 41.695312 C 25.777344 41.800781 25.738281 41.832031 25.636719 41.796875 C 25.460938 41.738281 25.722656 41.871094 25.652344 41.695312 C 25.785156 41.484375 26.007812 41.660156 26.164062 41.566406 C 26.082031 41.484375 25.9375 41.476562 25.945312 41.289062 C 25.949219 41.070312 26.117188 41.152344 26.207031 41.09375 C 26.363281 41.042969 26.519531 40.996094 26.671875 40.941406 C 26.546875 40.761719 26.484375 40.597656 26.757812 40.496094 C 26.871094 40.371094 26.988281 40.25 27.105469 40.128906 C 27.238281 40.152344 27.40625 40.242188 27.5 40.195312 C 27.988281 39.941406 28.621094 39.234375 29.003906 38.507812 C 28.597656 38.84375 28.230469 39.222656 27.851562 39.589844 C 27.628906 39.804688 27.480469 40.140625 27.097656 40.132812 C 27.101562 40.367188 27 40.496094 26.757812 40.488281 Z M 28.140625 40.492188 C 28.015625 40.707031 27.820312 40.800781 27.585938 40.824219 C 27.488281 41.246094 27.234375 41.5 26.8125 41.574219 C 26.816406 41.796875 26.699219 41.90625 26.488281 41.929688 C 26.488281 42.128906 26.488281 42.332031 26.488281 42.53125 C 26.386719 42.59375 26.355469 42.566406 26.402344 42.457031 C 26.433594 42.46875 26.460938 42.484375 26.484375 42.476562 C 26.472656 42.292969 26.355469 42.109375 26.492188 41.933594 C 26.785156 41.964844 26.84375 41.796875 26.804688 41.550781 C 27.464844 41.65625 27.652344 41.484375 27.589844 40.832031 C 27.757812 40.730469 27.929688 40.628906 28.097656 40.535156 C 28.117188 40.535156 28.140625 40.535156 28.160156 40.535156 C 28.140625 40.546875 28.121094 40.558594 28.105469 40.566406 C 28.117188 40.542969 28.128906 40.515625 28.140625 40.492188 Z M 24.261719 41.480469 C 24.210938 41.84375 24.1875 41.851562 23.714844 41.714844 C 23.6875 41.886719 23.660156 42.058594 23.636719 42.230469 C 23.464844 42.429688 23.289062 42.339844 23.113281 42.238281 C 23.105469 42.433594 23.101562 42.625 23.09375 42.820312 C 22.910156 42.929688 22.726562 42.886719 22.542969 42.8125 C 22.53125 42.988281 22.515625 43.164062 22.503906 43.34375 C 22.328125 43.347656 22.152344 43.355469 21.976562 43.359375 C 22.011719 43.5625 21.882812 43.6875 21.777344 43.835938 C 21.574219 44.117188 21.566406 44.371094 21.753906 44.3125 C 21.960938 44.246094 22.019531 44.070312 22.03125 43.894531 C 22.042969 43.722656 21.992188 43.542969 21.972656 43.367188 C 22.152344 43.34375 22.328125 43.320312 22.5 43.285156 C 22.433594 43.125 22.285156 42.960938 22.535156 42.824219 C 22.726562 42.820312 22.917969 42.816406 23.109375 42.8125 C 23.027344 42.628906 22.9375 42.445312 23.105469 42.265625 C 23.292969 42.246094 23.476562 42.230469 23.65625 42.210938 C 23.546875 42.042969 23.496094 41.882812 23.699219 41.738281 C 23.878906 41.609375 24.027344 41.421875 24.273438 41.433594 C 24.167969 41.503906 24.148438 41.488281 24.207031 41.386719 C 24.226562 41.417969 24.242188 41.449219 24.261719 41.480469 Z M 13.867188 42.460938 C 13.71875 42.507812 13.519531 42.453125 13.445312 42.667969 C 13.242188 42.628906 13.160156 42.726562 13.179688 42.925781 C 12.96875 42.894531 12.878906 42.996094 12.890625 43.203125 C 12.191406 43.429688 11.839844 44.042969 11.417969 44.574219 C 11.34375 44.667969 11.375 44.765625 11.480469 44.800781 C 11.558594 44.828125 11.695312 44.867188 11.730469 44.828125 C 12.195312 44.339844 12.730469 43.902344 12.871094 43.183594 C 13.09375 43.214844 13.160156 43.097656 13.152344 42.898438 C 13.335938 42.910156 13.410156 42.804688 13.417969 42.632812 C 13.578125 42.5625 13.734375 42.488281 13.890625 42.421875 C 13.769531 42.457031 13.746094 42.433594 13.828125 42.351562 C 13.839844 42.386719 13.855469 42.425781 13.867188 42.460938 Z M 18.640625 42.386719 C 18.5 42.488281 18.363281 42.585938 18.226562 42.6875 C 18.050781 42.652344 17.976562 42.769531 17.914062 42.90625 C 17.804688 42.980469 17.695312 43.054688 17.585938 43.128906 C 17.261719 43.46875 16.929688 43.800781 16.605469 44.148438 C 16.285156 44.492188 16.164062 44.847656 16.363281 44.828125 C 16.625 44.796875 16.757812 44.59375 16.898438 44.410156 C 17.128906 44.109375 17.367188 43.816406 17.570312 43.5 C 17.625 43.40625 17.5625 43.238281 17.5625 43.109375 C 17.769531 43.167969 17.902344 43.128906 17.882812 42.875 C 18.039062 42.875 18.160156 42.820312 18.199219 42.652344 C 18.351562 42.542969 18.503906 42.433594 18.652344 42.332031 C 18.554688 42.402344 18.53125 42.390625 18.582031 42.296875 C 18.601562 42.324219 18.621094 42.355469 18.640625 42.386719 Z M 11.585938 31.277344 C 11.65625 31.148438 11.722656 31.023438 11.792969 30.898438 C 11.898438 30.816406 12.003906 30.734375 12.109375 30.652344 C 12.183594 30.535156 12.257812 30.421875 12.332031 30.304688 C 12.503906 30.28125 12.585938 30.175781 12.585938 30.003906 C 12.769531 30.003906 12.859375 29.902344 12.871094 29.722656 C 13.101562 29.683594 13.121094 29.527344 13.082031 29.339844 C 13.289062 29.378906 13.382812 29.273438 13.398438 29.074219 C 13.679688 29.074219 13.605469 28.863281 13.613281 28.699219 C 13.523438 28.480469 13.585938 28.410156 13.808594 28.496094 C 13.914062 28.382812 14.160156 28.550781 14.191406 28.296875 C 14.101562 28.019531 14.164062 27.851562 14.484375 27.886719 C 14.613281 28.023438 14.582031 27.730469 14.566406 27.921875 C 14.5625 27.945312 14.535156 27.992188 14.53125 27.992188 C 14.449219 27.960938 14.449219 27.914062 14.539062 27.863281 C 14.433594 28.015625 14.324219 28.167969 14.21875 28.316406 C 14.097656 28.40625 13.996094 28.554688 13.8125 28.484375 C 13.871094 28.664062 13.773438 28.71875 13.632812 28.742188 C 13.566406 28.867188 13.496094 28.992188 13.433594 29.121094 C 13.324219 29.207031 13.21875 29.292969 13.117188 29.386719 C 13.046875 29.511719 12.980469 29.632812 12.90625 29.757812 C 12.738281 29.777344 12.628906 29.851562 12.621094 30.039062 C 12.441406 30.058594 12.335938 30.136719 12.367188 30.335938 C 12.148438 30.355469 12.078125 30.472656 12.136719 30.675781 C 11.9375 30.640625 11.78125 30.65625 11.824219 30.925781 C 11.550781 30.933594 11.558594 31.105469 11.609375 31.296875 C 11.234375 31.230469 11.230469 31.234375 11.328125 31.609375 C 11.097656 31.445312 10.886719 31.503906 10.703125 31.6875 C 10.199219 32.183594 9.695312 32.679688 9.199219 33.1875 C 8.835938 33.558594 8.484375 33.9375 8.132812 34.320312 C 8.027344 34.4375 8.011719 34.585938 8.132812 34.695312 C 8.167969 34.726562 8.3125 34.691406 8.367188 34.640625 C 8.539062 34.480469 8.691406 34.296875 8.851562 34.128906 C 9.664062 33.273438 10.476562 32.417969 11.28125 31.554688 C 11.382812 31.460938 11.484375 31.367188 11.585938 31.277344 Z M 24.238281 42.734375 C 24.027344 42.625 23.898438 42.671875 23.871094 42.921875 C 23.652344 42.890625 23.566406 42.992188 23.589844 43.207031 C 23.375 43.175781 23.289062 43.28125 23.304688 43.488281 C 23.105469 43.472656 22.976562 43.59375 22.882812 43.742188 C 22.84375 43.804688 22.816406 43.929688 22.851562 43.96875 C 22.953125 44.082031 23.09375 44.050781 23.191406 43.960938 C 23.328125 43.828125 23.347656 43.652344 23.289062 43.472656 C 23.507812 43.503906 23.585938 43.394531 23.566406 43.183594 C 23.773438 43.203125 23.855469 43.097656 23.84375 42.894531 C 24.019531 42.925781 24.113281 42.816406 24.191406 42.683594 C 24.324219 42.621094 24.457031 42.554688 24.585938 42.492188 C 24.765625 41.789062 25.492188 41.484375 25.6875 40.773438 C 25.304688 41.101562 24.984375 41.492188 24.648438 41.863281 C 24.453125 42.078125 24.519531 42.289062 24.59375 42.503906 C 24.214844 42.367188 24.210938 42.371094 24.238281 42.734375 Z M 14.082031 43.402344 C 13.945312 43.691406 13.871094 43.691406 13.601562 43.394531 C 13.710938 43.449219 13.710938 43.492188 13.59375 43.519531 C 13.585938 43.488281 13.578125 43.457031 13.574219 43.429688 C 13.746094 43.421875 13.921875 43.410156 14.097656 43.398438 C 14.125 43.164062 14.222656 43.003906 14.488281 43.019531 C 14.472656 42.6875 14.742188 42.539062 14.925781 42.335938 C 15.210938 42.023438 15.511719 41.730469 15.792969 41.417969 C 15.828125 41.378906 15.808594 41.222656 15.765625 41.191406 C 15.707031 41.148438 15.566406 41.136719 15.519531 41.175781 C 15.078125 41.597656 14.660156 42.042969 14.402344 42.605469 C 14.359375 42.703125 14.453125 42.871094 14.488281 43.003906 C 14.351562 43.136719 14.214844 43.269531 14.082031 43.402344 Z M 18.617188 43.539062 C 18.453125 43.59375 18.289062 43.648438 18.125 43.707031 C 17.957031 43.929688 17.789062 44.15625 17.628906 44.382812 C 17.554688 44.488281 17.578125 44.566406 17.683594 44.585938 C 17.726562 44.59375 17.792969 44.582031 17.8125 44.554688 C 17.988281 44.292969 18.285156 44.070312 18.09375 43.691406 C 18.277344 43.621094 18.457031 43.550781 18.636719 43.484375 C 18.542969 43.535156 18.523438 43.519531 18.585938 43.445312 C 18.597656 43.476562 18.609375 43.507812 18.617188 43.539062 Z M 21.464844 43.511719 C 21.476562 43.882812 21.410156 43.933594 21.042969 43.839844 C 20.808594 43.894531 20.917969 44.117188 20.851562 44.253906 C 20.714844 44.394531 20.554688 44.296875 20.402344 44.300781 L 20.359375 44.351562 C 20.359375 44.351562 20.363281 44.285156 20.371094 44.289062 C 20.535156 44.265625 20.695312 44.242188 20.851562 44.203125 C 20.90625 44.078125 20.960938 43.949219 21.023438 43.820312 C 21.171875 43.699219 21.324219 43.574219 21.472656 43.457031 C 21.308594 43.546875 21.585938 43.59375 21.410156 43.53125 C 21.386719 43.523438 21.347656 43.476562 21.351562 43.476562 C 21.410156 43.40625 21.449219 43.417969 21.464844 43.511719 Z M 19.933594 31.019531 C 20.015625 30.859375 20.101562 30.695312 20.1875 30.53125 C 20.460938 30.476562 20.308594 30.257812 20.34375 30.113281 C 20.792969 30.339844 21.105469 30.136719 21.371094 29.777344 C 22.359375 29.324219 23.15625 28.5625 24.082031 28.003906 C 24.636719 27.667969 25.105469 27.167969 25.804688 27.085938 C 26.097656 27.054688 26.277344 26.789062 26.4375 26.554688 C 26.609375 26.3125 26.925781 26.121094 26.832031 25.742188 C 26.738281 25.734375 26.683594 25.710938 26.65625 25.730469 C 24.851562 26.839844 23.125 28.070312 21.496094 29.433594 C 21.386719 29.527344 21.339844 29.65625 21.394531 29.804688 C 21.21875 29.738281 21.0625 29.785156 20.921875 29.902344 C 20.75 30.039062 20.578125 30.167969 20.339844 30.121094 C 20.300781 30.273438 20.261719 30.421875 20.222656 30.574219 C 20.144531 30.714844 20.066406 30.855469 19.992188 30.992188 C 19.960938 30.984375 19.929688 30.976562 19.898438 30.96875 C 19.917969 30.957031 19.957031 30.933594 19.960938 30.9375 C 20.089844 31.078125 19.996094 30.84375 19.933594 31.019531 Z M 11.1875 43.78125 C 11.070312 43.855469 10.953125 43.933594 10.835938 44.007812 C 10.730469 44.132812 10.640625 44.285156 10.441406 44.261719 C 10.597656 44.375 10.515625 44.089844 10.539062 44.277344 C 10.554688 44.375 10.519531 44.402344 10.425781 44.371094 C 10.25 44.3125 10.511719 44.453125 10.445312 44.273438 C 10.5625 44.175781 10.679688 44.078125 10.800781 43.980469 C 10.980469 44 11.136719 43.980469 11.152344 43.746094 C 11.292969 43.6875 11.429688 43.625 11.566406 43.566406 C 12.054688 43.054688 12.546875 42.546875 13.03125 42.03125 C 13.414062 41.617188 13.792969 41.195312 14.160156 40.765625 C 14.195312 40.726562 14.15625 40.570312 14.105469 40.523438 C 14.0625 40.484375 13.917969 40.496094 13.871094 40.539062 C 13.046875 41.378906 12.234375 42.238281 11.550781 43.203125 C 11.496094 43.285156 11.582031 43.464844 11.59375 43.589844 C 11.375 43.46875 11.242188 43.542969 11.1875 43.78125 Z M 19.816406 43.710938 C 19.851562 43.824219 19.816406 43.847656 19.710938 43.78125 C 19.734375 43.75 19.757812 43.71875 19.785156 43.695312 C 19.96875 43.691406 20.136719 43.660156 20.253906 43.5 C 20.445312 43.308594 20.640625 43.121094 20.816406 42.921875 C 20.898438 42.828125 20.867188 42.742188 20.765625 42.71875 C 20.726562 42.710938 20.664062 42.707031 20.640625 42.730469 C 20.410156 42.941406 20.152344 43.144531 20.285156 43.523438 C 20.128906 43.585938 19.972656 43.648438 19.816406 43.710938 Z M 23.238281 21.171875 L 23.183594 21.210938 C 23.183594 21.210938 23.203125 21.144531 23.203125 21.144531 C 23.300781 20.988281 23.398438 20.832031 23.492188 20.671875 C 23.71875 20.652344 23.957031 20.894531 24.164062 20.632812 C 24.378906 20.484375 24.34375 20.300781 24.238281 20.105469 C 24.5 20.199219 24.742188 20.3125 25.023438 20.117188 C 25.480469 19.792969 25.96875 19.511719 26.425781 19.191406 C 26.738281 18.976562 26.714844 18.65625 26.367188 18.398438 C 26.222656 18.292969 25.992188 18.222656 25.960938 18.519531 C 25.9375 18.753906 25.972656 19.007812 25.757812 19.160156 C 25.277344 19.507812 24.90625 20.039062 24.265625 20.125 C 24.246094 20.3125 24.226562 20.496094 24.210938 20.683594 C 23.96875 20.679688 23.726562 20.679688 23.480469 20.675781 C 23.511719 20.898438 23.359375 21.027344 23.238281 21.171875 Z M 13.257812 21.453125 C 13.1875 21.675781 13.003906 21.710938 12.8125 21.738281 L 12.613281 22.117188 C 12.492188 22.171875 12.367188 22.226562 12.242188 22.285156 C 12.109375 22.398438 12.101562 22.554688 12.109375 22.71875 C 11.945312 22.738281 11.78125 22.757812 11.617188 22.777344 C 11.582031 22.933594 11.550781 23.085938 11.515625 23.242188 C 11.367188 23.277344 11.214844 23.308594 11.066406 23.34375 C 11.007812 23.476562 10.949219 23.609375 10.890625 23.742188 C 10.769531 23.804688 10.648438 23.863281 10.527344 23.925781 C 9.996094 24.519531 9.460938 25.109375 8.929688 25.707031 C 8.777344 25.878906 8.597656 26.042969 8.667969 26.316406 C 8.441406 26.28125 8.371094 26.402344 8.386719 26.605469 C 8.308594 26.617188 8.207031 26.601562 8.160156 26.648438 C 8.058594 26.75 8.046875 26.886719 8.195312 26.960938 C 8.230469 26.976562 8.347656 26.886719 8.378906 26.820312 C 8.410156 26.757812 8.375 26.664062 8.371094 26.585938 C 8.585938 26.621094 8.664062 26.507812 8.652344 26.304688 C 9.492188 25.839844 9.945312 24.996094 10.535156 24.289062 C 10.59375 24.21875 10.511719 24.03125 10.503906 23.902344 C 10.699219 23.988281 10.855469 24 10.859375 23.714844 C 11.113281 23.679688 11.101562 23.515625 11.054688 23.335938 C 11.230469 23.40625 11.386719 23.402344 11.476562 23.199219 C 11.632812 23.089844 11.648438 22.941406 11.609375 22.777344 C 11.78125 22.816406 11.945312 22.804688 12.074219 22.667969 C 12.121094 22.535156 12.164062 22.398438 12.214844 22.265625 C 12.339844 22.199219 12.464844 22.136719 12.585938 22.070312 C 12.648438 21.953125 12.710938 21.835938 12.78125 21.722656 C 12.949219 21.617188 13.117188 21.511719 13.28125 21.414062 C 13.179688 21.457031 13.164062 21.378906 13.234375 21.378906 C 13.417969 21.382812 13.207031 21.269531 13.257812 21.453125 Z M 10.378906 21.882812 C 10.273438 22.058594 10.167969 22.238281 10.0625 22.417969 C 9.917969 22.460938 9.789062 22.617188 9.621094 22.480469 C 9.699219 22.675781 9.601562 22.828125 9.515625 22.984375 C 9.363281 23.019531 9.234375 23.179688 9.058594 23.0625 C 8.984375 23.410156 8.914062 23.761719 8.84375 24.109375 C 8.792969 24.3125 8.660156 24.441406 8.46875 24.511719 C 8.347656 24.523438 8.339844 24.492188 8.433594 24.417969 C 8.449219 24.449219 8.464844 24.480469 8.480469 24.511719 C 8.488281 24.269531 8.59375 24.125 8.847656 24.128906 C 8.914062 23.78125 8.984375 23.433594 9.054688 23.089844 C 9.152344 22.832031 9.371094 22.988281 9.53125 22.941406 C 9.453125 22.851562 9.269531 22.882812 9.3125 22.660156 C 9.355469 22.425781 9.515625 22.554688 9.617188 22.515625 C 9.710938 22.261719 9.914062 22.390625 10.074219 22.371094 C 9.957031 22.242188 9.820312 22.125 9.96875 21.929688 C 10.078125 21.789062 10.203125 21.898438 10.3125 21.898438 C 10.34375 21.917969 10.375 21.9375 10.402344 21.957031 C 10.300781 22 10.289062 21.972656 10.378906 21.882812 Z M 11.511719 21.90625 C 11.402344 22.070312 11.292969 22.238281 11.183594 22.40625 C 11.03125 22.441406 10.914062 22.613281 10.730469 22.519531 C 10.714844 22.695312 10.703125 22.875 10.6875 23.050781 C 10.511719 23.054688 10.332031 23.058594 10.15625 23.058594 C 10.140625 23.238281 10.125 23.414062 10.109375 23.589844 L 9.589844 23.617188 C 9.574219 23.792969 9.5625 23.96875 9.546875 24.144531 C 9.378906 24.15625 9.210938 24.167969 9.042969 24.179688 C 9.007812 24.347656 8.96875 24.511719 8.933594 24.675781 C 8.699219 24.910156 8.46875 25.140625 8.234375 25.375 C 8.589844 25.226562 8.851562 25 8.933594 24.625 C 8.699219 24.375 8.71875 24.289062 9.035156 24.1875 C 9.207031 24.160156 9.378906 24.132812 9.546875 24.097656 C 9.445312 23.933594 9.285156 23.757812 9.585938 23.628906 C 9.765625 23.601562 9.941406 23.574219 10.113281 23.539062 C 10.003906 23.371094 9.835938 23.203125 10.152344 23.074219 C 10.339844 23.0625 10.527344 23.046875 10.710938 23.027344 C 10.625 22.863281 10.394531 22.691406 10.734375 22.550781 C 10.878906 22.488281 11.023438 22.421875 11.167969 22.355469 C 11.097656 22.070312 11.097656 21.847656 11.492188 21.957031 C 11.554688 21.886719 11.566406 21.96875 11.519531 21.972656 C 11.335938 21.976562 11.53125 22.09375 11.511719 21.90625 Z M 8.253906 30.199219 C 8.394531 30.125 8.535156 30.054688 8.675781 29.980469 C 8.929688 29.898438 8.789062 29.699219 8.804688 29.542969 C 8.9375 29.488281 9.074219 29.4375 9.210938 29.382812 C 9.539062 29.480469 9.722656 29.226562 9.929688 29.054688 C 10.75 28.355469 11.554688 27.640625 12.378906 26.945312 C 12.660156 26.707031 12.957031 26.476562 13.273438 26.28125 C 13.734375 26 13.746094 26.015625 13.628906 25.359375 C 12.644531 25.933594 10.820312 27.621094 9.234375 29.425781 C 9.089844 29.46875 8.945312 29.515625 8.808594 29.574219 C 8.773438 29.71875 8.738281 29.867188 8.699219 30.015625 C 8.542969 30.089844 8.382812 30.167969 8.230469 30.242188 C 8.351562 30.214844 8.359375 30.304688 8.285156 30.296875 C 8.101562 30.273438 8.300781 30.382812 8.253906 30.199219 Z M 24.691406 22.800781 C 24.527344 22.957031 24.582031 23.167969 24.554688 23.359375 C 24.261719 23.332031 23.96875 23.304688 23.675781 23.273438 C 23.472656 23.660156 23.097656 23.878906 22.746094 24.015625 C 22.179688 24.234375 21.824219 24.664062 21.4375 25.066406 C 21.550781 25.027344 21.570312 25.050781 21.5 25.128906 C 21.484375 25.097656 21.46875 25.0625 21.457031 25.03125 C 21.589844 25.058594 21.757812 25.148438 21.855469 25.097656 C 22.566406 24.742188 23.164062 24.21875 23.722656 23.65625 C 23.777344 23.597656 23.683594 23.390625 23.671875 23.265625 C 23.945312 23.527344 24.265625 23.289062 24.558594 23.355469 C 24.59375 23.183594 24.625 23.011719 24.65625 22.84375 C 24.710938 22.777344 24.730469 22.78125 24.71875 22.859375 C 24.710938 22.839844 24.699219 22.820312 24.691406 22.800781 Z M 24.625 30.039062 C 24.8125 30.015625 24.566406 29.847656 24.695312 29.980469 C 24.71875 30.003906 24.75 30.046875 24.742188 30.0625 C 24.703125 30.148438 24.648438 30.144531 24.59375 30.058594 C 24.695312 30.046875 24.707031 30.066406 24.621094 30.109375 C 24.621094 30.085938 24.625 30.0625 24.625 30.039062 Z M 17.957031 29.59375 C 18.058594 29.445312 18.164062 29.292969 18.269531 29.140625 C 18.429688 29.097656 18.457031 28.953125 18.5 28.824219 C 18.691406 28.777344 18.578125 28.613281 18.636719 28.511719 C 18.894531 28.503906 18.914062 28.300781 18.949219 28.113281 C 19.382812 28.355469 19.671875 28 20.003906 27.839844 C 20.054688 27.707031 20.105469 27.570312 20.15625 27.4375 C 20.464844 27.375 20.40625 27.183594 20.3125 26.980469 C 20.785156 27.324219 21.082031 26.835938 21.449219 26.722656 C 21.492188 26.574219 21.535156 26.421875 21.578125 26.273438 C 22.109375 26.207031 22.511719 25.957031 22.714844 25.4375 C 23.226562 25.335938 23.640625 25.097656 23.855469 24.585938 C 24.355469 24.46875 24.796875 24.273438 24.976562 23.722656 C 25.78125 23.570312 26.3125 22.984375 26.875 22.453125 C 26.914062 22.417969 26.867188 22.285156 26.863281 22.207031 C 27.148438 22.382812 27.367188 22.253906 27.566406 22.046875 C 27.589844 22.019531 27.625 21.976562 27.621094 21.945312 C 27.613281 21.820312 27.539062 21.78125 27.433594 21.851562 C 27.25 21.976562 27.070312 22.109375 26.890625 22.234375 C 26.429688 22.539062 25.960938 22.835938 25.507812 23.152344 C 25.292969 23.304688 25.007812 23.410156 25 23.75 C 24.460938 23.816406 24.054688 24.058594 23.878906 24.613281 C 23.316406 24.644531 22.953125 24.949219 22.738281 25.464844 C 22.214844 25.535156 21.851562 25.835938 21.613281 26.304688 C 21.335938 26.390625 21.339844 26.550781 21.492188 26.753906 C 21.246094 26.613281 21.023438 26.617188 20.789062 26.792969 C 20.65625 26.894531 20.484375 26.929688 20.339844 27.007812 C 20.289062 27.160156 20.242188 27.316406 20.191406 27.46875 C 19.941406 27.539062 19.972656 27.707031 20.050781 27.894531 C 19.832031 27.8125 19.632812 27.832031 19.425781 27.960938 C 19.289062 28.050781 19.105469 28.070312 18.945312 28.128906 C 18.964844 28.347656 18.839844 28.453125 18.65625 28.519531 C 18.617188 28.632812 18.574219 28.746094 18.535156 28.863281 C 18.425781 28.9375 18.261719 28.976562 18.300781 29.171875 C 18.21875 29.316406 18.230469 29.527344 18.019531 29.570312 L 17.921875 29.53125 C 17.949219 29.523438 17.972656 29.511719 18 29.503906 C 17.984375 29.535156 17.96875 29.566406 17.957031 29.59375 Z M 24.085938 26.609375 L 24.027344 26.652344 C 24.027344 26.652344 24.046875 26.582031 24.050781 26.582031 C 24.144531 26.421875 24.238281 26.261719 24.328125 26.101562 C 24.585938 26.265625 24.871094 26.179688 25.136719 26.1875 C 25.164062 26.015625 25.191406 25.847656 25.21875 25.675781 C 25.675781 25.789062 25.925781 25.539062 26.105469 25.15625 C 26.699219 25.105469 27.085938 24.679688 27.507812 24.324219 C 27.550781 24.289062 27.535156 24.164062 27.527344 24.082031 C 27.523438 24.066406 27.433594 24.027344 27.414062 24.042969 C 26.925781 24.351562 26.304688 24.515625 26.128906 25.1875 C 25.6875 25.101562 25.464844 25.398438 25.253906 25.714844 C 24.996094 25.835938 25.0625 26.019531 25.167969 26.210938 C 24.882812 26.175781 24.601562 26.140625 24.320312 26.109375 C 24.347656 26.328125 24.199219 26.460938 24.085938 26.609375 Z M 19.464844 27.179688 C 19.449219 27.296875 19.390625 27.320312 19.308594 27.238281 C 19.285156 27.214844 19.292969 27.164062 19.285156 27.125 C 19.351562 27.125 19.421875 27.125 19.484375 27.132812 C 19.378906 27.191406 19.359375 27.175781 19.425781 27.082031 C 19.4375 27.113281 19.453125 27.148438 19.464844 27.179688 Z M 9.789062 27.746094 C 9.585938 27.730469 9.496094 27.832031 9.511719 28.035156 C 9.308594 28.019531 9.21875 28.121094 9.234375 28.324219 C 9.03125 28.3125 8.945312 28.414062 8.953125 28.613281 C 8.757812 28.605469 8.664062 28.703125 8.667969 28.898438 C 8.394531 28.871094 8.292969 29.105469 8.152344 29.265625 C 8.117188 29.308594 8.15625 29.421875 8.164062 29.5 C 8.238281 29.476562 8.335938 29.476562 8.382812 29.425781 C 8.527344 29.273438 8.761719 29.15625 8.644531 28.871094 C 8.867188 28.90625 8.964844 28.8125 8.925781 28.585938 C 9.148438 28.621094 9.246094 28.527344 9.210938 28.300781 C 9.433594 28.339844 9.53125 28.246094 9.492188 28.015625 C 9.714844 28.054688 9.8125 27.960938 9.78125 27.734375 C 9.996094 27.773438 10.089844 27.679688 10.070312 27.460938 C 10.40625 27.5 10.5625 27.226562 10.761719 27.042969 C 11.671875 26.222656 12.496094 25.304688 13.511719 24.609375 C 13.859375 24.367188 13.785156 24.050781 13.628906 23.734375 C 13.417969 23.730469 13.28125 23.851562 13.148438 23.992188 C 12.171875 25.015625 11.191406 26.039062 10.21875 27.074219 C 10.132812 27.167969 10.113281 27.324219 10.066406 27.453125 C 9.863281 27.445312 9.773438 27.542969 9.789062 27.746094 Z M 17.804688 27.789062 C 17.644531 27.890625 17.917969 27.941406 17.738281 27.886719 C 17.707031 27.875 17.65625 27.847656 17.65625 27.824219 C 17.652344 27.714844 17.714844 27.683594 17.8125 27.734375 C 17.714844 27.820312 17.6875 27.8125 17.730469 27.703125 C 17.757812 27.730469 17.78125 27.761719 17.804688 27.789062 Z M 12.042969 27.886719 C 11.914062 28.019531 11.789062 28.152344 11.664062 28.285156 C 11.558594 28.359375 11.457031 28.433594 11.351562 28.507812 C 11.304688 28.636719 11.253906 28.765625 11.207031 28.898438 C 11.011719 28.882812 10.898438 28.960938 10.914062 29.175781 C 9.6875 29.71875 8.898438 30.789062 7.988281 31.710938 C 7.921875 31.777344 7.925781 31.992188 7.980469 32.09375 C 8.0625 32.242188 8.222656 32.195312 8.324219 32.085938 C 9.171875 31.203125 10.015625 30.320312 10.851562 29.433594 C 10.90625 29.375 10.890625 29.257812 10.90625 29.167969 C 11.117188 29.179688 11.214844 29.085938 11.179688 28.871094 C 11.4375 28.832031 11.414062 28.675781 11.339844 28.5 C 11.511719 28.527344 11.6875 28.558594 11.628906 28.273438 C 11.746094 28.148438 11.863281 28.027344 11.976562 27.90625 C 11.789062 27.90625 12.09375 27.773438 12.054688 27.957031 C 12.042969 28.019531 11.964844 27.980469 12.042969 27.886719 Z M 23.128906 21.808594 C 23.417969 21.859375 23.699219 22.015625 24.003906 21.867188 C 24.179688 21.574219 24.660156 21.570312 24.683594 21.128906 C 25.316406 21.132812 25.765625 20.816406 26.09375 20.285156 C 26.339844 20.339844 26.539062 20.214844 26.746094 20.109375 C 26.925781 20.015625 27.09375 20.019531 27.238281 20.167969 C 27.160156 20.074219 27.238281 20.027344 27.261719 20.097656 C 27.316406 20.277344 27.339844 20.050781 27.183594 20.160156 C 27.164062 19.605469 27.078125 19.503906 26.757812 19.691406 C 26.5 19.839844 26.160156 19.921875 26.117188 20.3125 C 25.496094 20.332031 25.074219 20.695312 24.710938 21.160156 C 24.097656 21.3125 24.011719 21.40625 24.015625 21.882812 C 23.738281 21.640625 23.421875 21.894531 23.140625 21.824219 C 23.117188 22.019531 23.097656 22.210938 23.074219 22.402344 C 22.777344 22.285156 22.558594 22.546875 22.292969 22.554688 C 22.472656 22.5 22.207031 22.402344 22.367188 22.492188 C 22.390625 22.507812 22.421875 22.554688 22.417969 22.558594 C 22.351562 22.621094 22.3125 22.601562 22.308594 22.503906 C 22.542969 22.410156 22.832031 22.601562 23.03125 22.351562 C 23.238281 22.203125 23.175781 22.003906 23.128906 21.808594 Z M 27.136719 23.066406 C 27.28125 23.222656 27.4375 23.1875 27.59375 23.089844 C 27.621094 23.070312 27.652344 23.03125 27.65625 23 C 27.660156 22.902344 27.589844 22.847656 27.488281 22.894531 C 27.378906 22.945312 27.28125 23.035156 27.1875 23.109375 C 26.996094 23.238281 26.929688 23.386719 27.101562 23.582031 C 26.582031 23.269531 26.355469 23.6875 26.085938 24.003906 C 25.65625 24.214844 25.128906 24.308594 25.007812 24.902344 C 24.445312 24.910156 24.101562 25.253906 23.816406 25.691406 C 23.6875 25.738281 23.535156 25.75 23.429688 25.832031 C 21.140625 27.542969 18.925781 29.351562 16.8125 31.28125 C 16.679688 31.40625 16.539062 31.539062 16.546875 31.753906 C 16.34375 31.742188 16.234375 31.824219 16.273438 32.046875 C 15.820312 32.074219 15.617188 32.402344 15.457031 32.773438 C 15.773438 32.582031 16.105469 32.410156 16.246094 32.019531 C 16.441406 32.03125 16.566406 31.972656 16.535156 31.742188 C 16.921875 31.820312 17.128906 31.515625 17.371094 31.320312 C 19.402344 29.652344 21.425781 27.972656 23.449219 26.296875 C 23.628906 26.152344 23.832031 26.023438 23.886719 25.769531 C 24.371094 25.621094 24.773438 25.367188 24.984375 24.875 C 25.460938 24.71875 25.933594 24.5625 26.0625 23.976562 C 26.507812 24.109375 26.714844 23.65625 27.054688 23.542969 C 27.164062 23.398438 27.285156 23.257812 27.136719 23.066406 Z M 20.972656 16.472656 C 20.503906 16.292969 20.117188 16.332031 19.910156 16.875 C 18.644531 17.386719 17.65625 18.320312 16.59375 19.144531 C 16.550781 19.179688 16.539062 19.335938 16.570312 19.359375 C 16.632812 19.40625 16.746094 19.4375 16.816406 19.414062 C 16.945312 19.367188 17.066406 19.289062 17.171875 19.203125 C 17.90625 18.625 18.640625 18.042969 19.367188 17.457031 C 19.578125 17.289062 19.855469 17.175781 19.886719 16.847656 C 20.046875 16.792969 20.214844 16.761719 20.363281 16.683594 C 20.554688 16.582031 20.722656 16.429688 20.945312 16.457031 C 20.933594 16.375 20.925781 16.292969 20.910156 16.214844 C 20.90625 16.203125 20.867188 16.203125 20.847656 16.195312 C 20.890625 16.289062 20.929688 16.378906 20.972656 16.472656 Z M 27.226562 33.449219 C 27.730469 33.429688 28.082031 33.203125 28.28125 32.542969 C 27.804688 32.851562 27.367188 32.96875 27.25 33.480469 C 26.726562 33.558594 26.308594 33.792969 26.121094 34.332031 C 24.953125 34.734375 24.140625 35.640625 23.25 36.4375 C 23.207031 36.472656 23.21875 36.625 23.257812 36.679688 C 23.300781 36.730469 23.449219 36.769531 23.488281 36.738281 C 24.378906 36 25.316406 35.316406 26.09375 34.449219 C 26.117188 34.421875 26.097656 34.359375 26.101562 34.3125 C 26.726562 34.164062 26.921875 34.011719 27.226562 33.449219 Z M 24.132812 17.648438 C 24.332031 17.710938 24.480469 17.601562 24.621094 17.484375 C 24.828125 17.308594 24.804688 17.074219 24.578125 16.9375 C 24.414062 16.84375 24.230469 16.800781 24.070312 16.921875 C 23.859375 17.078125 24.109375 17.238281 24.101562 17.402344 C 24.09375 17.492188 24.105469 17.585938 24.109375 17.675781 L 24.089844 17.746094 Z M 16.261719 43.484375 C 15.324219 44.171875 14.777344 45.011719 15.171875 44.816406 C 15.695312 44.554688 16.121094 44.113281 16.253906 43.476562 C 16.472656 43.515625 16.554688 43.40625 16.546875 43.199219 C 17.417969 42.773438 17.871094 41.914062 18.519531 41.253906 C 18.605469 41.171875 18.597656 41.0625 18.511719 41.023438 C 18.4375 40.992188 18.304688 40.980469 18.265625 41.023438 C 17.640625 41.703125 16.878906 42.273438 16.535156 43.1875 C 16.324219 43.171875 16.246094 43.28125 16.261719 43.484375 Z M 8.230469 17.351562 C 8.996094 17.332031 9.378906 16.761719 9.738281 16.160156 C 9.226562 16.574219 8.71875 16.988281 8.214844 17.398438 C 8.324219 17.328125 8.371094 17.414062 8.289062 17.4375 C 8.113281 17.484375 8.332031 17.511719 8.230469 17.351562 Z M 17.230469 41.261719 C 16.980469 41.121094 16.785156 41.230469 16.609375 41.40625 C 15.640625 42.378906 14.675781 43.351562 13.710938 44.328125 C 13.644531 44.394531 13.578125 44.46875 13.539062 44.550781 C 13.503906 44.628906 13.476562 44.789062 13.5 44.800781 C 13.617188 44.855469 13.757812 44.914062 13.882812 44.902344 C 14.132812 44.875 14.292969 44.679688 14.445312 44.5 C 15.363281 43.417969 16.277344 42.332031 17.179688 41.246094 C 17.148438 41.105469 17.125 41.097656 17.132812 41.21875 C 17.132812 41.234375 17.195312 41.246094 17.230469 41.261719 Z M 17.277344 34.15625 C 17.273438 34.160156 17.273438 34.167969 17.273438 34.175781 C 16.808594 34.140625 16.34375 34.089844 15.875 34.070312 C 15.363281 34.050781 15.171875 34.226562 15.195312 34.730469 C 15.246094 36.011719 15.316406 37.289062 15.382812 38.570312 C 15.398438 38.890625 15.53125 39.125 15.871094 39.144531 C 17.179688 39.214844 18.488281 39.269531 19.773438 38.925781 C 20.285156 38.792969 20.742188 38.570312 21.132812 38.21875 C 22.050781 37.394531 22.125 36.238281 21.316406 35.316406 C 20.800781 34.726562 20.152344 34.359375 19.375 34.289062 C 18.675781 34.226562 17.976562 34.199219 17.277344 34.15625 Z M 14.773438 23.359375 C 14.769531 23.359375 14.765625 23.359375 14.761719 23.359375 C 14.761719 24.070312 14.753906 24.78125 14.765625 25.492188 C 14.773438 25.816406 14.945312 26.015625 15.285156 26.023438 C 16.457031 26.046875 17.613281 25.9375 18.734375 25.570312 C 19.320312 25.382812 19.84375 25.074219 20.28125 24.628906 C 21.507812 23.382812 21.222656 21.898438 19.621094 21.253906 C 18.832031 20.9375 18 20.816406 17.152344 20.875 C 16.414062 20.921875 15.664062 20.757812 14.941406 21.011719 C 14.542969 21.71875 14.855469 22.484375 14.773438 23.214844 C 14.765625 23.261719 14.773438 23.3125 14.773438 23.359375 Z M 8.144531 36.207031 C 8.292969 36.265625 8.402344 36.195312 8.496094 36.089844 C 9.355469 35.148438 10.183594 34.179688 11.070312 33.269531 C 12.617188 31.679688 14.203125 30.128906 15.765625 28.558594 C 15.960938 28.359375 16.136719 28.136719 16.316406 27.921875 C 16.328125 27.90625 16.300781 27.84375 16.277344 27.820312 C 16.25 27.789062 16.195312 27.75 16.164062 27.761719 C 16.035156 27.804688 15.886719 27.835938 15.792969 27.921875 C 13.21875 30.351562 10.683594 32.816406 8.339844 35.472656 C 8.21875 35.609375 8.132812 35.785156 8.066406 35.957031 C 8.042969 36.019531 8.117188 36.121094 8.144531 36.207031 Z M 8.164062 28.273438 C 8.359375 28.152344 8.449219 28.121094 8.511719 28.054688 C 10.144531 26.347656 11.777344 24.636719 13.410156 22.925781 C 13.570312 22.753906 13.746094 22.578125 13.703125 22.3125 C 13.691406 22.242188 13.609375 22.132812 13.558594 22.132812 C 13.476562 22.132812 13.375 22.191406 13.316406 22.253906 C 11.535156 24.085938 9.785156 25.9375 8.214844 27.960938 C 8.1875 27.992188 8.199219 28.046875 8.164062 28.273438 Z M 14.0625 37.167969 C 14.015625 37.058594 13.992188 36.972656 13.945312 36.898438 C 13.933594 36.878906 13.855469 36.871094 13.828125 36.890625 C 13.710938 36.960938 13.582031 37.03125 13.492188 37.128906 C 11.941406 38.78125 10.398438 40.4375 8.855469 42.097656 C 8.699219 42.269531 8.5625 42.464844 8.4375 42.667969 C 8.402344 42.726562 8.433594 42.84375 8.464844 42.925781 C 8.503906 43.023438 8.589844 43.019531 8.679688 42.925781 C 10.410156 41.125 12.144531 39.320312 13.871094 37.515625 C 13.960938 37.417969 14.003906 37.273438 14.0625 37.167969 Z M 13.976562 35.714844 C 11.980469 37.289062 10.257812 39.15625 8.5 40.996094 C 8.414062 41.085938 8.386719 41.242188 8.34375 41.375 C 8.332031 41.402344 8.367188 41.457031 8.394531 41.492188 C 8.417969 41.523438 8.476562 41.570312 8.492188 41.5625 C 8.609375 41.488281 8.738281 41.421875 8.832031 41.324219 C 10.472656 39.566406 12.109375 37.808594 13.742188 36.050781 C 13.835938 35.949219 13.898438 35.828125 13.976562 35.714844 Z M 8.101562 33.589844 C 9.988281 31.484375 11.902344 29.757812 13.753906 27.964844 C 13.820312 27.902344 13.863281 27.8125 13.90625 27.730469 C 13.925781 27.695312 13.9375 27.617188 13.925781 27.609375 C 13.851562 27.574219 13.738281 27.5 13.695312 27.53125 C 13.503906 27.65625 13.316406 27.796875 13.15625 27.960938 C 11.601562 29.527344 10.050781 31.097656 8.503906 32.675781 C 8.347656 32.835938 8.132812 32.96875 8.101562 33.589844 Z M 18.976562 32.492188 C 19.199219 32.644531 19.394531 32.636719 19.601562 32.480469 C 21.03125 31.40625 22.464844 30.332031 23.894531 29.257812 C 24 29.175781 24.09375 29.078125 23.996094 28.921875 C 22.894531 29.402344 20.066406 31.40625 18.976562 32.492188 Z M 25.433594 17.851562 C 25.15625 17.679688 24.992188 17.925781 24.820312 18.042969 C 24.003906 18.597656 23.207031 19.175781 22.394531 19.738281 C 21.992188 20.015625 21.65625 20.496094 21.046875 20.203125 C 20.976562 20.171875 20.898438 20.324219 20.953125 20.425781 C 21.132812 20.789062 21.570312 20.9375 21.871094 20.714844 C 23.035156 19.839844 24.191406 18.953125 25.347656 18.0625 C 25.398438 18.023438 25.40625 17.925781 25.433594 17.851562 Z M 18.054688 19.320312 C 18.214844 19.457031 18.398438 19.480469 18.5625 19.355469 C 19.75 18.449219 20.933594 17.535156 22.113281 16.617188 C 22.203125 16.542969 22.335938 16.402344 22.140625 16.292969 C 22.074219 16.253906 21.945312 16.261719 21.886719 16.304688 C 20.648438 17.226562 19.417969 18.152344 18.191406 19.082031 C 18.121094 19.132812 18.097656 19.242188 18.054688 19.320312 Z M 24.765625 43.074219 C 24.570312 43.105469 24.4375 43.21875 24.363281 43.398438 C 24.34375 43.441406 24.316406 43.496094 24.332031 43.53125 C 24.375 43.636719 24.460938 43.667969 24.558594 43.609375 C 24.671875 43.539062 24.796875 43.472656 24.882812 43.375 C 24.921875 43.332031 24.882812 43.210938 24.863281 43.132812 C 24.859375 43.105469 24.800781 43.09375 24.765625 43.074219 Z M 8.691406 16.195312 C 8.640625 16.144531 8.597656 16.058594 8.539062 16.039062 C 8.351562 15.984375 8.191406 16.042969 8.15625 16.257812 C 8.132812 16.382812 8.148438 16.535156 8.332031 16.523438 C 8.523438 16.507812 8.636719 16.382812 8.691406 16.195312 Z M 23.210938 16.660156 C 23.195312 16.617188 23.179688 16.578125 23.164062 16.539062 C 23.136719 16.570312 23.089844 16.601562 23.085938 16.636719 C 23.078125 16.671875 23.113281 16.710938 23.132812 16.75 Z M 19.449219 44.460938 L 19.519531 44.515625 L 19.53125 44.433594 Z M 18.671875 44.40625 C 18.644531 44.429688 18.59375 44.457031 18.59375 44.484375 C 18.59375 44.511719 18.636719 44.542969 18.664062 44.570312 C 18.691406 44.546875 18.738281 44.519531 18.738281 44.492188 C 18.742188 44.464844 18.695312 44.433594 18.671875 44.40625 Z M 8.316406 37.074219 C 8.292969 37.042969 8.269531 37.011719 8.246094 36.980469 C 8.214844 37.003906 8.160156 37.027344 8.160156 37.058594 C 8.15625 37.085938 8.203125 37.121094 8.226562 37.152344 C 8.257812 37.125 8.289062 37.101562 8.316406 37.074219 Z M 18.078125 32.390625 L 18.023438 32.472656 L 18.113281 32.480469 Z M 18.078125 32.390625 " fill-opacity="1" fill-rule="nonzero"/></g><g fill="#ffffff" fill-opacity="1"><g transform="translate(33.335492, 31.3829)"><g><path d="M 3.859375 -2.1875 L 6.609375 -2.1875 C 6.722656 -2.1875 6.863281 -2.203125 7.03125 -2.234375 C 7.195312 -2.273438 7.359375 -2.34375 7.515625 -2.4375 C 7.671875 -2.53125 7.800781 -2.660156 7.90625 -2.828125 C 8.019531 -2.992188 8.078125 -3.203125 8.078125 -3.453125 C 8.078125 -3.722656 8.023438 -3.941406 7.921875 -4.109375 C 7.828125 -4.273438 7.695312 -4.40625 7.53125 -4.5 C 7.363281 -4.59375 7.171875 -4.65625 6.953125 -4.6875 C 6.734375 -4.726562 6.503906 -4.75 6.265625 -4.75 L 3.859375 -4.75 Z M 3.859375 -6.8125 L 6.296875 -6.8125 C 6.566406 -6.8125 6.785156 -6.851562 6.953125 -6.9375 C 7.128906 -7.019531 7.265625 -7.117188 7.359375 -7.234375 C 7.460938 -7.347656 7.53125 -7.472656 7.5625 -7.609375 C 7.601562 -7.742188 7.625 -7.863281 7.625 -7.96875 C 7.625 -8.09375 7.601562 -8.21875 7.5625 -8.34375 C 7.53125 -8.46875 7.457031 -8.582031 7.34375 -8.6875 C 7.238281 -8.800781 7.09375 -8.890625 6.90625 -8.953125 C 6.71875 -9.023438 6.476562 -9.0625 6.1875 -9.0625 L 3.859375 -9.0625 Z M 6.84375 -11.25 C 7.582031 -11.25 8.175781 -11.15625 8.625 -10.96875 C 9.082031 -10.789062 9.4375 -10.5625 9.6875 -10.28125 C 9.9375 -10 10.101562 -9.6875 10.1875 -9.34375 C 10.28125 -9.007812 10.328125 -8.691406 10.328125 -8.390625 C 10.328125 -7.734375 10.15625 -7.222656 9.8125 -6.859375 C 9.46875 -6.492188 9.019531 -6.222656 8.46875 -6.046875 L 8.46875 -6.03125 C 8.6875 -5.988281 8.929688 -5.910156 9.203125 -5.796875 C 9.484375 -5.679688 9.75 -5.515625 10 -5.296875 C 10.25 -5.078125 10.457031 -4.789062 10.625 -4.4375 C 10.789062 -4.09375 10.875 -3.664062 10.875 -3.15625 C 10.875 -2.476562 10.738281 -1.929688 10.46875 -1.515625 C 10.207031 -1.109375 9.867188 -0.789062 9.453125 -0.5625 C 9.046875 -0.332031 8.585938 -0.179688 8.078125 -0.109375 C 7.566406 -0.0351562 7.0625 0 6.5625 0 L 1.203125 0 L 1.203125 -11.25 Z M 6.84375 -11.25 "/></g></g></g><g fill="#ffffff" fill-opacity="1"><g transform="translate(45.024873, 31.3829)"><g><path d="M 6.859375 -4.015625 L 5.421875 -8.3125 L 3.9375 -4.015625 Z M 6.75 -11.25 L 10.984375 0 L 8.171875 0 L 7.4375 -2.109375 L 3.359375 -2.109375 L 2.65625 0 L -0.140625 0 L 4.0625 -11.25 Z M 6.75 -11.25 "/></g></g></g><g fill="#ffffff" fill-opacity="1"><g transform="translate(55.845995, 31.3829)"><g><path d="M 3.859375 -7.046875 L 3.859375 0 L 1.203125 0 L 1.203125 -11.25 L 3.890625 -11.25 L 8.328125 -4.265625 L 8.375 -4.265625 L 8.375 -11.25 L 11.03125 -11.25 L 11.03125 0 L 8.328125 0 L 3.890625 -7.046875 Z M 3.859375 -7.046875 "/></g></g></g><g fill="#ffffff" fill-opacity="1"><g transform="translate(68.146378, 31.3829)"><g><path d="M 0.203125 -9.0625 L 0.203125 -11.25 L 9.65625 -11.25 L 9.65625 -9.0625 L 6.265625 -9.0625 L 6.265625 0 L 3.625 0 L 3.625 -9.0625 Z M 0.203125 -9.0625 "/></g></g></g><g fill="#ffffff" fill-opacity="1"><g transform="translate(78.03492, 31.3829)"><g><path d="M 3.859375 -6.203125 L 6.28125 -6.203125 C 6.65625 -6.203125 6.957031 -6.25 7.1875 -6.34375 C 7.414062 -6.445312 7.585938 -6.570312 7.703125 -6.71875 C 7.816406 -6.863281 7.890625 -7.015625 7.921875 -7.171875 C 7.960938 -7.328125 7.984375 -7.476562 7.984375 -7.625 C 7.984375 -8.175781 7.828125 -8.550781 7.515625 -8.75 C 7.210938 -8.957031 6.769531 -9.0625 6.1875 -9.0625 L 3.859375 -9.0625 Z M 1.203125 -11.25 L 6.96875 -11.25 C 7.15625 -11.25 7.378906 -11.238281 7.640625 -11.21875 C 7.910156 -11.195312 8.1875 -11.148438 8.46875 -11.078125 C 8.75 -11.003906 9.03125 -10.894531 9.3125 -10.75 C 9.59375 -10.601562 9.84375 -10.410156 10.0625 -10.171875 C 10.28125 -9.941406 10.453125 -9.648438 10.578125 -9.296875 C 10.710938 -8.953125 10.78125 -8.539062 10.78125 -8.0625 C 10.78125 -7.582031 10.710938 -7.175781 10.578125 -6.84375 C 10.453125 -6.507812 10.289062 -6.234375 10.09375 -6.015625 C 9.894531 -5.804688 9.675781 -5.640625 9.4375 -5.515625 C 9.207031 -5.398438 9.003906 -5.304688 8.828125 -5.234375 L 8.828125 -5.203125 C 9.210938 -5.085938 9.507812 -4.921875 9.71875 -4.703125 C 9.9375 -4.484375 10.097656 -4.238281 10.203125 -3.96875 C 10.316406 -3.707031 10.382812 -3.441406 10.40625 -3.171875 C 10.425781 -2.910156 10.4375 -2.675781 10.4375 -2.46875 C 10.445312 -2.125 10.453125 -1.820312 10.453125 -1.5625 C 10.460938 -1.3125 10.476562 -1.09375 10.5 -0.90625 C 10.53125 -0.726562 10.570312 -0.566406 10.625 -0.421875 C 10.6875 -0.273438 10.769531 -0.132812 10.875 0 L 8.171875 0 C 8.046875 -0.164062 7.957031 -0.328125 7.90625 -0.484375 C 7.863281 -0.648438 7.832031 -0.835938 7.8125 -1.046875 C 7.800781 -1.253906 7.789062 -1.5 7.78125 -1.78125 C 7.769531 -2.070312 7.75 -2.429688 7.71875 -2.859375 C 7.6875 -3.191406 7.585938 -3.445312 7.421875 -3.625 C 7.265625 -3.800781 7.082031 -3.925781 6.875 -4 C 6.675781 -4.082031 6.484375 -4.125 6.296875 -4.125 C 6.109375 -4.132812 5.976562 -4.140625 5.90625 -4.140625 L 3.859375 -4.140625 L 3.859375 0 L 1.203125 0 Z M 1.203125 -11.25 "/></g></g></g><g fill="#ffffff" fill-opacity="1"><g transform="translate(89.579592, 31.3829)"><g><path d="M 6.859375 -4.015625 L 5.421875 -8.3125 L 3.9375 -4.015625 Z M 6.75 -11.25 L 10.984375 0 L 8.171875 0 L 7.4375 -2.109375 L 3.359375 -2.109375 L 2.65625 0 L -0.140625 0 L 4.0625 -11.25 Z M 6.75 -11.25 "/></g></g></g><g fill="#ffffff" fill-opacity="1"><g transform="translate(100.400714, 31.3829)"><g><path d="M 3.859375 -7.046875 L 3.859375 0 L 1.203125 0 L 1.203125 -11.25 L 3.890625 -11.25 L 8.328125 -4.265625 L 8.375 -4.265625 L 8.375 -11.25 L 11.03125 -11.25 L 11.03125 0 L 8.328125 0 L 3.890625 -7.046875 Z M 3.859375 -7.046875 "/></g></g></g><g fill="#ffffff" fill-opacity="1"><g transform="translate(112.701097, 31.3829)"><g><path d="M 11.640625 -6.109375 L 11.640625 0 L 9.65625 0 L 9.65625 -1.203125 L 9.625 -1.203125 C 9.25 -0.628906 8.78125 -0.226562 8.21875 0 C 7.664062 0.21875 7 0.328125 6.21875 0.328125 C 5.40625 0.328125 4.703125 0.226562 4.109375 0.03125 C 3.523438 -0.164062 3.03125 -0.425781 2.625 -0.75 C 2.21875 -1.070312 1.882812 -1.441406 1.625 -1.859375 C 1.363281 -2.273438 1.160156 -2.707031 1.015625 -3.15625 C 0.878906 -3.601562 0.785156 -4.039062 0.734375 -4.46875 C 0.691406 -4.90625 0.671875 -5.300781 0.671875 -5.65625 C 0.671875 -6.03125 0.703125 -6.441406 0.765625 -6.890625 C 0.828125 -7.335938 0.9375 -7.773438 1.09375 -8.203125 C 1.25 -8.640625 1.46875 -9.0625 1.75 -9.46875 C 2.03125 -9.875 2.390625 -10.234375 2.828125 -10.546875 C 3.265625 -10.859375 3.796875 -11.109375 4.421875 -11.296875 C 5.046875 -11.484375 5.773438 -11.578125 6.609375 -11.578125 C 7.421875 -11.578125 8.117188 -11.457031 8.703125 -11.21875 C 9.296875 -10.988281 9.789062 -10.6875 10.1875 -10.3125 C 10.582031 -9.9375 10.890625 -9.507812 11.109375 -9.03125 C 11.328125 -8.5625 11.472656 -8.085938 11.546875 -7.609375 L 8.765625 -7.609375 C 8.753906 -7.710938 8.71875 -7.863281 8.65625 -8.0625 C 8.601562 -8.269531 8.503906 -8.46875 8.359375 -8.65625 C 8.210938 -8.851562 7.992188 -9.023438 7.703125 -9.171875 C 7.421875 -9.316406 7.050781 -9.390625 6.59375 -9.390625 C 6.082031 -9.390625 5.648438 -9.304688 5.296875 -9.140625 C 4.953125 -8.984375 4.660156 -8.78125 4.421875 -8.53125 C 4.191406 -8.289062 4.019531 -8.019531 3.90625 -7.71875 C 3.789062 -7.425781 3.703125 -7.140625 3.640625 -6.859375 C 3.578125 -6.578125 3.539062 -6.316406 3.53125 -6.078125 C 3.53125 -5.847656 3.53125 -5.679688 3.53125 -5.578125 C 3.53125 -5.472656 3.535156 -5.304688 3.546875 -5.078125 C 3.554688 -4.847656 3.59375 -4.59375 3.65625 -4.3125 C 3.71875 -4.039062 3.804688 -3.757812 3.921875 -3.46875 C 4.046875 -3.175781 4.21875 -2.910156 4.4375 -2.671875 C 4.664062 -2.429688 4.945312 -2.234375 5.28125 -2.078125 C 5.613281 -1.929688 6.023438 -1.859375 6.515625 -1.859375 C 6.804688 -1.859375 7.097656 -1.898438 7.390625 -1.984375 C 7.679688 -2.078125 7.945312 -2.210938 8.1875 -2.390625 C 8.425781 -2.566406 8.628906 -2.789062 8.796875 -3.0625 C 8.960938 -3.34375 9.0625 -3.675781 9.09375 -4.0625 L 6.84375 -4.0625 L 6.84375 -6.109375 Z M 11.640625 -6.109375 "/></g></g></g><g fill="#ffffff" fill-opacity="1"><g transform="translate(33.657084, 43.823116)"><g><path d="M 4.265625 -3.296875 L 4.265625 -2.640625 L 1.5 -2.640625 L 1.5 0 L 0.71875 0 L 0.71875 -5.875 L 4.65625 -5.875 L 4.65625 -5.203125 L 1.5 -5.203125 L 1.5 -3.296875 Z M 4.265625 -3.296875 "/></g></g></g><g fill="#ffffff" fill-opacity="1"><g transform="translate(39.221985, 43.823116)"><g><path d="M 1.5 -3.15625 L 3.265625 -3.15625 C 3.359375 -3.15625 3.46875 -3.164062 3.59375 -3.1875 C 3.726562 -3.21875 3.859375 -3.269531 3.984375 -3.34375 C 4.109375 -3.414062 4.210938 -3.519531 4.296875 -3.65625 C 4.378906 -3.800781 4.421875 -3.988281 4.421875 -4.21875 C 4.421875 -4.40625 4.390625 -4.5625 4.328125 -4.6875 C 4.265625 -4.820312 4.175781 -4.925781 4.0625 -5 C 3.945312 -5.082031 3.8125 -5.132812 3.65625 -5.15625 C 3.5 -5.1875 3.328125 -5.203125 3.140625 -5.203125 L 1.5 -5.203125 Z M 0.71875 -5.875 L 3.3125 -5.875 C 3.414062 -5.875 3.535156 -5.867188 3.671875 -5.859375 C 3.816406 -5.847656 3.960938 -5.820312 4.109375 -5.78125 C 4.253906 -5.75 4.394531 -5.695312 4.53125 -5.625 C 4.664062 -5.5625 4.785156 -5.472656 4.890625 -5.359375 C 5.003906 -5.242188 5.09375 -5.097656 5.15625 -4.921875 C 5.226562 -4.753906 5.265625 -4.546875 5.265625 -4.296875 C 5.265625 -4.128906 5.238281 -3.960938 5.1875 -3.796875 C 5.144531 -3.640625 5.078125 -3.492188 4.984375 -3.359375 C 4.898438 -3.234375 4.796875 -3.125 4.671875 -3.03125 C 4.546875 -2.9375 4.40625 -2.875 4.25 -2.84375 L 4.25 -2.8125 C 4.445312 -2.738281 4.601562 -2.648438 4.71875 -2.546875 C 4.832031 -2.453125 4.914062 -2.34375 4.96875 -2.21875 C 5.019531 -2.101562 5.050781 -1.972656 5.0625 -1.828125 C 5.082031 -1.691406 5.09375 -1.550781 5.09375 -1.40625 C 5.101562 -1.195312 5.109375 -1.019531 5.109375 -0.875 C 5.117188 -0.738281 5.128906 -0.617188 5.140625 -0.515625 C 5.148438 -0.421875 5.171875 -0.332031 5.203125 -0.25 C 5.234375 -0.164062 5.28125 -0.0820312 5.34375 0 L 4.5 0 C 4.457031 -0.0625 4.421875 -0.125 4.390625 -0.1875 C 4.359375 -0.257812 4.332031 -0.34375 4.3125 -0.4375 C 4.300781 -0.53125 4.289062 -0.640625 4.28125 -0.765625 C 4.28125 -0.890625 4.28125 -1.046875 4.28125 -1.234375 C 4.28125 -1.390625 4.269531 -1.539062 4.25 -1.6875 C 4.238281 -1.832031 4.195312 -1.96875 4.125 -2.09375 C 4.050781 -2.21875 3.941406 -2.3125 3.796875 -2.375 C 3.648438 -2.445312 3.445312 -2.484375 3.1875 -2.484375 L 1.5 -2.484375 L 1.5 0 L 0.71875 0 Z M 0.71875 -5.875 "/></g></g></g><g fill="#ffffff" fill-opacity="1"><g transform="translate(45.73522, 43.823116)"><g><path d="M 1.21875 -2.9375 C 1.21875 -2.695312 1.238281 -2.4375 1.28125 -2.15625 C 1.332031 -1.875 1.425781 -1.609375 1.5625 -1.359375 C 1.707031 -1.109375 1.90625 -0.898438 2.15625 -0.734375 C 2.414062 -0.566406 2.757812 -0.484375 3.1875 -0.484375 C 3.25 -0.484375 3.34375 -0.488281 3.46875 -0.5 C 3.59375 -0.507812 3.726562 -0.539062 3.875 -0.59375 C 4.019531 -0.644531 4.164062 -0.722656 4.3125 -0.828125 C 4.46875 -0.929688 4.601562 -1.070312 4.71875 -1.25 C 4.84375 -1.425781 4.941406 -1.648438 5.015625 -1.921875 C 5.097656 -2.203125 5.140625 -2.539062 5.140625 -2.9375 C 5.140625 -3.28125 5.097656 -3.601562 5.015625 -3.90625 C 4.941406 -4.207031 4.828125 -4.46875 4.671875 -4.6875 C 4.515625 -4.90625 4.3125 -5.078125 4.0625 -5.203125 C 3.8125 -5.328125 3.519531 -5.390625 3.1875 -5.390625 C 2.882812 -5.390625 2.625 -5.34375 2.40625 -5.25 C 2.195312 -5.15625 2.019531 -5.035156 1.875 -4.890625 C 1.726562 -4.742188 1.609375 -4.578125 1.515625 -4.390625 C 1.429688 -4.210938 1.367188 -4.03125 1.328125 -3.84375 C 1.285156 -3.664062 1.253906 -3.492188 1.234375 -3.328125 C 1.222656 -3.171875 1.21875 -3.039062 1.21875 -2.9375 Z M 0.375 -2.9375 C 0.375 -3.445312 0.441406 -3.894531 0.578125 -4.28125 C 0.722656 -4.675781 0.914062 -5.003906 1.15625 -5.265625 C 1.40625 -5.523438 1.703125 -5.71875 2.046875 -5.84375 C 2.390625 -5.976562 2.769531 -6.046875 3.1875 -6.046875 C 3.507812 -6.046875 3.835938 -5.992188 4.171875 -5.890625 C 4.503906 -5.796875 4.800781 -5.628906 5.0625 -5.390625 C 5.332031 -5.148438 5.550781 -4.828125 5.71875 -4.421875 C 5.894531 -4.023438 5.984375 -3.53125 5.984375 -2.9375 C 5.984375 -2.425781 5.921875 -1.992188 5.796875 -1.640625 C 5.671875 -1.285156 5.515625 -0.992188 5.328125 -0.765625 C 5.140625 -0.535156 4.929688 -0.359375 4.703125 -0.234375 C 4.484375 -0.109375 4.269531 -0.015625 4.0625 0.046875 C 3.863281 0.109375 3.679688 0.144531 3.515625 0.15625 C 3.347656 0.164062 3.238281 0.171875 3.1875 0.171875 C 3.125 0.171875 3.007812 0.164062 2.84375 0.15625 C 2.675781 0.144531 2.488281 0.109375 2.28125 0.046875 C 2.070312 -0.015625 1.851562 -0.109375 1.625 -0.234375 C 1.40625 -0.359375 1.203125 -0.535156 1.015625 -0.765625 C 0.828125 -0.992188 0.671875 -1.285156 0.546875 -1.640625 C 0.429688 -1.992188 0.375 -2.425781 0.375 -2.9375 Z M 0.375 -2.9375 "/></g></g></g><g fill="#ffffff" fill-opacity="1"><g transform="translate(52.894662, 43.823116)"><g><path d="M 1.5 0 L 0.71875 0 L 0.71875 -5.875 L 1.578125 -5.875 L 4.703125 -1.21875 L 4.703125 -5.875 L 5.5 -5.875 L 5.5 0 L 4.625 0 L 1.5 -4.65625 Z M 1.5 0 "/></g></g></g><g fill="#ffffff" fill-opacity="1"><g transform="translate(59.903045, 43.823116)"><g><path d="M 0.109375 -5.203125 L 0.109375 -5.875 L 4.71875 -5.875 L 4.71875 -5.203125 L 2.8125 -5.203125 L 2.8125 0 L 2.015625 0 L 2.015625 -5.203125 Z M 0.109375 -5.203125 "/></g></g></g><g fill="#ffffff" fill-opacity="1"><g transform="translate(65.526692, 43.823116)"><g><path d="M 4.578125 -3.359375 L 4.578125 -2.703125 L 1.5 -2.703125 L 1.5 -0.65625 L 5 -0.65625 L 5 0 L 0.71875 0 L 0.71875 -5.875 L 4.90625 -5.875 L 4.90625 -5.203125 L 1.5 -5.203125 L 1.5 -3.359375 Z M 4.578125 -3.359375 "/></g></g></g><g fill="#ffffff" fill-opacity="1"><g transform="translate(71.460858, 43.823116)"><g><path d="M 1.5 0 L 0.71875 0 L 0.71875 -5.875 L 1.578125 -5.875 L 4.703125 -1.21875 L 4.703125 -5.875 L 5.5 -5.875 L 5.5 0 L 4.625 0 L 1.5 -4.65625 Z M 1.5 0 "/></g></g></g><g fill="#ffffff" fill-opacity="1"><g transform="translate(78.469242, 43.823116)"><g><path d="M 1.5 -0.65625 L 2.59375 -0.65625 C 3.351562 -0.65625 3.914062 -0.835938 4.28125 -1.203125 C 4.644531 -1.578125 4.828125 -2.15625 4.828125 -2.9375 C 4.828125 -3.375 4.769531 -3.738281 4.65625 -4.03125 C 4.539062 -4.332031 4.390625 -4.566406 4.203125 -4.734375 C 4.015625 -4.910156 3.800781 -5.03125 3.5625 -5.09375 C 3.320312 -5.164062 3.078125 -5.203125 2.828125 -5.203125 L 1.5 -5.203125 Z M 2.875 -5.875 C 2.96875 -5.875 3.101562 -5.867188 3.28125 -5.859375 C 3.457031 -5.847656 3.648438 -5.8125 3.859375 -5.75 C 4.066406 -5.6875 4.273438 -5.59375 4.484375 -5.46875 C 4.703125 -5.351562 4.898438 -5.1875 5.078125 -4.96875 C 5.253906 -4.757812 5.394531 -4.488281 5.5 -4.15625 C 5.601562 -3.832031 5.65625 -3.429688 5.65625 -2.953125 C 5.65625 -2.472656 5.601562 -2.066406 5.5 -1.734375 C 5.394531 -1.398438 5.253906 -1.125 5.078125 -0.90625 C 4.910156 -0.6875 4.710938 -0.515625 4.484375 -0.390625 C 4.265625 -0.265625 4.039062 -0.171875 3.8125 -0.109375 C 3.582031 -0.0546875 3.359375 -0.0234375 3.140625 -0.015625 C 2.929688 -0.00390625 2.742188 0 2.578125 0 L 0.71875 0 L 0.71875 -5.875 Z M 2.875 -5.875 "/></g></g></g><g fill="#ffffff" fill-opacity="1"><g transform="translate(85.301382, 43.823116)"><g/></g></g><g fill="#ffffff" fill-opacity="1"><g transform="translate(88.054854, 43.823116)"><g><path d="M 1.5 -0.65625 L 2.59375 -0.65625 C 3.351562 -0.65625 3.914062 -0.835938 4.28125 -1.203125 C 4.644531 -1.578125 4.828125 -2.15625 4.828125 -2.9375 C 4.828125 -3.375 4.769531 -3.738281 4.65625 -4.03125 C 4.539062 -4.332031 4.390625 -4.566406 4.203125 -4.734375 C 4.015625 -4.910156 3.800781 -5.03125 3.5625 -5.09375 C 3.320312 -5.164062 3.078125 -5.203125 2.828125 -5.203125 L 1.5 -5.203125 Z M 2.875 -5.875 C 2.96875 -5.875 3.101562 -5.867188 3.28125 -5.859375 C 3.457031 -5.847656 3.648438 -5.8125 3.859375 -5.75 C 4.066406 -5.6875 4.273438 -5.59375 4.484375 -5.46875 C 4.703125 -5.351562 4.898438 -5.1875 5.078125 -4.96875 C 5.253906 -4.757812 5.394531 -4.488281 5.5 -4.15625 C 5.601562 -3.832031 5.65625 -3.429688 5.65625 -2.953125 C 5.65625 -2.472656 5.601562 -2.066406 5.5 -1.734375 C 5.394531 -1.398438 5.253906 -1.125 5.078125 -0.90625 C 4.910156 -0.6875 4.710938 -0.515625 4.484375 -0.390625 C 4.265625 -0.265625 4.039062 -0.171875 3.8125 -0.109375 C 3.582031 -0.0546875 3.359375 -0.0234375 3.140625 -0.015625 C 2.929688 -0.00390625 2.742188 0 2.578125 0 L 0.71875 0 L 0.71875 -5.875 Z M 2.875 -5.875 "/></g></g></g><g fill="#ffffff" fill-opacity="1"><g transform="translate(94.886994, 43.823116)"><g><path d="M 4.578125 -3.359375 L 4.578125 -2.703125 L 1.5 -2.703125 L 1.5 -0.65625 L 5 -0.65625 L 5 0 L 0.71875 0 L 0.71875 -5.875 L 4.90625 -5.875 L 4.90625 -5.203125 L 1.5 -5.203125 L 1.5 -3.359375 Z M 4.578125 -3.359375 "/></g></g></g><g fill="#ffffff" fill-opacity="1"><g transform="translate(100.82116, 43.823116)"><g><path d="M 4.15625 -5.875 L 5.015625 -5.875 L 2.96875 0 L 2.015625 0 L -0.03125 -5.875 L 0.828125 -5.875 L 2.484375 -0.8125 Z M 4.15625 -5.875 "/></g></g></g><g fill="#ffffff" fill-opacity="1"><g transform="translate(106.60426, 43.823116)"><g><path d="M 4.578125 -3.359375 L 4.578125 -2.703125 L 1.5 -2.703125 L 1.5 -0.65625 L 5 -0.65625 L 5 0 L 0.71875 0 L 0.71875 -5.875 L 4.90625 -5.875 L 4.90625 -5.203125 L 1.5 -5.203125 L 1.5 -3.359375 Z M 4.578125 -3.359375 "/></g></g></g><g fill="#ffffff" fill-opacity="1"><g transform="translate(112.538426, 43.823116)"><g><path d="M 4.484375 0 L 0.71875 0 L 0.71875 -5.875 L 1.5 -5.875 L 1.5 -0.65625 L 4.484375 -0.65625 Z M 4.484375 0 "/></g></g></g><g fill="#ffffff" fill-opacity="1"><g transform="translate(117.776024, 43.823116)"><g><path d="M 1.21875 -2.9375 C 1.21875 -2.695312 1.238281 -2.4375 1.28125 -2.15625 C 1.332031 -1.875 1.425781 -1.609375 1.5625 -1.359375 C 1.707031 -1.109375 1.90625 -0.898438 2.15625 -0.734375 C 2.414062 -0.566406 2.757812 -0.484375 3.1875 -0.484375 C 3.25 -0.484375 3.34375 -0.488281 3.46875 -0.5 C 3.59375 -0.507812 3.726562 -0.539062 3.875 -0.59375 C 4.019531 -0.644531 4.164062 -0.722656 4.3125 -0.828125 C 4.46875 -0.929688 4.601562 -1.070312 4.71875 -1.25 C 4.84375 -1.425781 4.941406 -1.648438 5.015625 -1.921875 C 5.097656 -2.203125 5.140625 -2.539062 5.140625 -2.9375 C 5.140625 -3.28125 5.097656 -3.601562 5.015625 -3.90625 C 4.941406 -4.207031 4.828125 -4.46875 4.671875 -4.6875 C 4.515625 -4.90625 4.3125 -5.078125 4.0625 -5.203125 C 3.8125 -5.328125 3.519531 -5.390625 3.1875 -5.390625 C 2.882812 -5.390625 2.625 -5.34375 2.40625 -5.25 C 2.195312 -5.15625 2.019531 -5.035156 1.875 -4.890625 C 1.726562 -4.742188 1.609375 -4.578125 1.515625 -4.390625 C 1.429688 -4.210938 1.367188 -4.03125 1.328125 -3.84375 C 1.285156 -3.664062 1.253906 -3.492188 1.234375 -3.328125 C 1.222656 -3.171875 1.21875 -3.039062 1.21875 -2.9375 Z M 0.375 -2.9375 C 0.375 -3.445312 0.441406 -3.894531 0.578125 -4.28125 C 0.722656 -4.675781 0.914062 -5.003906 1.15625 -5.265625 C 1.40625 -5.523438 1.703125 -5.71875 2.046875 -5.84375 C 2.390625 -5.976562 2.769531 -6.046875 3.1875 -6.046875 C 3.507812 -6.046875 3.835938 -5.992188 4.171875 -5.890625 C 4.503906 -5.796875 4.800781 -5.628906 5.0625 -5.390625 C 5.332031 -5.148438 5.550781 -4.828125 5.71875 -4.421875 C 5.894531 -4.023438 5.984375 -3.53125 5.984375 -2.9375 C 5.984375 -2.425781 5.921875 -1.992188 5.796875 -1.640625 C 5.671875 -1.285156 5.515625 -0.992188 5.328125 -0.765625 C 5.140625 -0.535156 4.929688 -0.359375 4.703125 -0.234375 C 4.484375 -0.109375 4.269531 -0.015625 4.0625 0.046875 C 3.863281 0.109375 3.679688 0.144531 3.515625 0.15625 C 3.347656 0.164062 3.238281 0.171875 3.1875 0.171875 C 3.125 0.171875 3.007812 0.164062 2.84375 0.15625 C 2.675781 0.144531 2.488281 0.109375 2.28125 0.046875 C 2.070312 -0.015625 1.851562 -0.109375 1.625 -0.234375 C 1.40625 -0.359375 1.203125 -0.535156 1.015625 -0.765625 C 0.828125 -0.992188 0.671875 -1.285156 0.546875 -1.640625 C 0.429688 -1.992188 0.375 -2.425781 0.375 -2.9375 Z M 0.375 -2.9375 "/></g></g></g><g fill="#ffffff" fill-opacity="1"><g transform="translate(124.935468, 43.823116)"><g><path d="M 1.5 -3 L 2.9375 -3 C 3.414062 -3 3.757812 -3.097656 3.96875 -3.296875 C 4.175781 -3.492188 4.28125 -3.785156 4.28125 -4.171875 C 4.28125 -4.535156 4.171875 -4.796875 3.953125 -4.953125 C 3.734375 -5.117188 3.394531 -5.203125 2.9375 -5.203125 L 1.5 -5.203125 Z M 3.109375 -5.875 C 3.410156 -5.875 3.679688 -5.84375 3.921875 -5.78125 C 4.160156 -5.71875 4.367188 -5.617188 4.546875 -5.484375 C 4.722656 -5.347656 4.859375 -5.171875 4.953125 -4.953125 C 5.046875 -4.742188 5.09375 -4.488281 5.09375 -4.1875 C 5.09375 -3.914062 5.054688 -3.664062 4.984375 -3.4375 C 4.910156 -3.207031 4.789062 -3.007812 4.625 -2.84375 C 4.46875 -2.6875 4.253906 -2.5625 3.984375 -2.46875 C 3.722656 -2.382812 3.40625 -2.34375 3.03125 -2.34375 L 1.5 -2.34375 L 1.5 0 L 0.71875 0 L 0.71875 -5.875 Z M 3.109375 -5.875 "/></g></g></g><g fill="#ffffff" fill-opacity="1"><g transform="translate(131.096224, 43.823116)"><g><path d="M 4.578125 -3.359375 L 4.578125 -2.703125 L 1.5 -2.703125 L 1.5 -0.65625 L 5 -0.65625 L 5 0 L 0.71875 0 L 0.71875 -5.875 L 4.90625 -5.875 L 4.90625 -5.203125 L 1.5 -5.203125 L 1.5 -3.359375 Z M 4.578125 -3.359375 "/></g></g></g><g fill="#ffffff" fill-opacity="1"><g transform="translate(137.03039, 43.823116)"><g><path d="M 1.5 -3.15625 L 3.265625 -3.15625 C 3.359375 -3.15625 3.46875 -3.164062 3.59375 -3.1875 C 3.726562 -3.21875 3.859375 -3.269531 3.984375 -3.34375 C 4.109375 -3.414062 4.210938 -3.519531 4.296875 -3.65625 C 4.378906 -3.800781 4.421875 -3.988281 4.421875 -4.21875 C 4.421875 -4.40625 4.390625 -4.5625 4.328125 -4.6875 C 4.265625 -4.820312 4.175781 -4.925781 4.0625 -5 C 3.945312 -5.082031 3.8125 -5.132812 3.65625 -5.15625 C 3.5 -5.1875 3.328125 -5.203125 3.140625 -5.203125 L 1.5 -5.203125 Z M 0.71875 -5.875 L 3.3125 -5.875 C 3.414062 -5.875 3.535156 -5.867188 3.671875 -5.859375 C 3.816406 -5.847656 3.960938 -5.820312 4.109375 -5.78125 C 4.253906 -5.75 4.394531 -5.695312 4.53125 -5.625 C 4.664062 -5.5625 4.785156 -5.472656 4.890625 -5.359375 C 5.003906 -5.242188 5.09375 -5.097656 5.15625 -4.921875 C 5.226562 -4.753906 5.265625 -4.546875 5.265625 -4.296875 C 5.265625 -4.128906 5.238281 -3.960938 5.1875 -3.796875 C 5.144531 -3.640625 5.078125 -3.492188 4.984375 -3.359375 C 4.898438 -3.234375 4.796875 -3.125 4.671875 -3.03125 C 4.546875 -2.9375 4.40625 -2.875 4.25 -2.84375 L 4.25 -2.8125 C 4.445312 -2.738281 4.601562 -2.648438 4.71875 -2.546875 C 4.832031 -2.453125 4.914062 -2.34375 4.96875 -2.21875 C 5.019531 -2.101562 5.050781 -1.972656 5.0625 -1.828125 C 5.082031 -1.691406 5.09375 -1.550781 5.09375 -1.40625 C 5.101562 -1.195312 5.109375 -1.019531 5.109375 -0.875 C 5.117188 -0.738281 5.128906 -0.617188 5.140625 -0.515625 C 5.148438 -0.421875 5.171875 -0.332031 5.203125 -0.25 C 5.234375 -0.164062 5.28125 -0.0820312 5.34375 0 L 4.5 0 C 4.457031 -0.0625 4.421875 -0.125 4.390625 -0.1875 C 4.359375 -0.257812 4.332031 -0.34375 4.3125 -0.4375 C 4.300781 -0.53125 4.289062 -0.640625 4.28125 -0.765625 C 4.28125 -0.890625 4.28125 -1.046875 4.28125 -1.234375 C 4.28125 -1.390625 4.269531 -1.539062 4.25 -1.6875 C 4.238281 -1.832031 4.195312 -1.96875 4.125 -2.09375 C 4.050781 -2.21875 3.941406 -2.3125 3.796875 -2.375 C 3.648438 -2.445312 3.445312 -2.484375 3.1875 -2.484375 L 1.5 -2.484375 L 1.5 0 L 0.71875 0 Z M 0.71875 -5.875 "/></g></g></g></svg>